<svg width="126" height="126" viewBox="0 0 126 126" fill="none" xmlns="http://www.w3.org/2000/svg">
<circle cx="63" cy="63.1282" r="60.7422" stroke="#1FBA4A" stroke-width="3.75725"/>
<g clip-path="url(#clip0_1_136)">
<path fill-rule="evenodd" clip-rule="evenodd" d="M76.3303 72.9845C76.856 72.7215 77.4599 72.6606 78.0276 72.8132C78.5952 72.9659 79.0871 73.3215 79.4101 73.8127L79.5493 74.0575L84.3502 83.6594C84.5215 84.0018 84.6084 84.3802 84.6037 84.7631C84.5989 85.1459 84.5027 85.5221 84.323 85.8601C84.1432 86.1982 83.8852 86.4884 83.5705 86.7065C83.2558 86.9245 82.8935 87.0641 82.5139 87.1136L82.2042 87.1329H43.7967C43.4138 87.133 43.0364 87.0415 42.696 86.866C42.3556 86.6905 42.0622 86.4362 41.8401 86.1241C41.6181 85.8121 41.474 85.4515 41.4197 85.0724C41.3655 84.6934 41.4027 84.3068 41.5283 83.945L41.6483 83.657L46.4493 74.0551C46.7183 73.4989 47.1915 73.0679 47.7704 72.8517C48.3492 72.6356 48.9891 72.651 49.5569 72.8946C50.1247 73.1383 50.5766 73.5916 50.8187 74.1601C51.0608 74.7285 51.0743 75.3685 50.8565 75.9467L50.7437 76.2035L47.6807 82.3319H78.3202L75.2573 76.2035C74.973 75.6343 74.9263 74.9755 75.1275 74.3719C75.3287 73.7683 75.7613 73.2693 76.3303 72.9845ZM63.0005 39.1235C67.457 39.1235 71.7309 40.8939 74.8822 44.0451C78.0334 47.1963 79.8037 51.4703 79.8037 55.9268C79.8037 61.6447 76.7095 66.2896 73.5073 69.5854C71.7384 71.382 69.7939 72.9968 67.703 74.4056L66.8076 74.9961L66.0107 75.4978C65.8858 75.5722 65.7658 75.6418 65.653 75.7138L65.0361 76.0691C63.7686 76.7892 62.2323 76.7892 60.9649 76.0691L60.348 75.7114L59.6038 75.2577C59.4665 75.1713 59.3296 75.0841 59.1933 74.9961L58.298 74.4056C56.207 72.9968 54.2625 71.382 52.4936 69.5854C49.2914 66.2896 46.1972 61.6447 46.1972 55.9268C46.1972 51.4703 47.9676 47.1963 51.1188 44.0451C54.27 40.8939 58.544 39.1235 63.0005 39.1235ZM63.0005 51.1259C61.7272 51.1259 60.5061 51.6317 59.6057 52.532C58.7054 53.4324 58.1995 54.6535 58.1995 55.9268C58.1995 57.2001 58.7054 58.4212 59.6057 59.3216C60.5061 60.2219 61.7272 60.7277 63.0005 60.7277C64.2738 60.7277 65.4949 60.2219 66.3952 59.3216C67.2956 58.4212 67.8014 57.2001 67.8014 55.9268C67.8014 54.6535 67.2956 53.4324 66.3952 52.532C65.4949 51.6317 64.2738 51.1259 63.0005 51.1259Z" fill="#1FBA4A"/>
</g>
<defs>
<clipPath id="clip0_1_136">
<rect width="57.6112" height="57.6112" fill="white" transform="translate(34.1943 34.3228)"/>
</clipPath>
</defs>
</svg>
