<svg width="126" height="126" viewBox="0 0 126 126" fill="none" xmlns="http://www.w3.org/2000/svg">
<circle cx="62.6208" cy="63.1282" r="60.7422" stroke="#1FBA4A" stroke-width="3.75725"/>
<path d="M86.7297 52.3524C87.8341 53.0573 88.743 54.0293 89.3724 55.1785C90.0017 56.3277 90.3312 57.617 90.3304 58.9272V73.33C90.3304 80.2914 84.6893 85.9325 77.728 85.9325H56.1238C54.8135 85.9333 53.5242 85.6038 52.375 84.9744C51.2258 84.3451 50.2538 83.4362 49.5489 82.3318H77.728C80.1154 82.3318 82.405 81.3834 84.0932 79.6952C85.7813 78.0071 86.7297 75.7174 86.7297 73.33V52.3524ZM84.3292 53.7902V72.1298C84.3294 74.1225 83.567 76.0397 82.1984 77.4882C80.8299 78.9366 78.9589 79.8065 76.9694 79.9193L76.5277 79.9313H48.9224C46.9296 79.9314 45.0124 79.169 43.564 77.8005C42.1155 76.4319 41.2457 74.561 41.1329 72.5715L41.1208 72.1298V53.7902L61.8849 64.722C62.1438 64.8586 62.4322 64.93 62.725 64.93C63.0178 64.93 63.3062 64.8586 63.5652 64.722L84.3292 53.7902ZM48.9224 43.9243H76.5277C78.2697 43.9242 79.9616 44.5069 81.334 45.5796C82.7065 46.6524 83.6806 48.1535 84.1012 49.8439L62.725 61.0948L41.3489 49.8439C41.7513 48.2293 42.6592 46.7855 43.94 45.7232C45.2208 44.6609 46.8075 44.0357 48.4687 43.9387L48.9224 43.9243Z" fill="#1FBA4A"/>
</svg>
