<svg width="126" height="126" viewBox="0 0 126 126" fill="none" xmlns="http://www.w3.org/2000/svg">
<circle cx="63.3791" cy="63.1282" r="60.7422" stroke="#1FBA4A" stroke-width="3.75725"/>
<path fill-rule="evenodd" clip-rule="evenodd" d="M60.2668 52.4364C61.3224 52.6355 62.312 53.0937 63.1467 53.7699C63.9814 54.446 64.635 55.319 65.0488 56.3103C65.4625 57.3017 65.6235 58.3803 65.5173 59.4492C65.411 60.5181 65.0408 61.5439 64.44 62.4344L81.044 75.3225C81.5848 75.0423 82.2044 74.9532 82.8022 75.0695C83.4 75.1859 83.9409 75.5009 84.3371 75.9634C84.7334 76.4259 84.9616 77.0088 84.9848 77.6174C85.008 78.226 84.8248 78.8245 84.465 79.3159C84.1052 79.8073 83.5898 80.1626 83.0026 80.3241C82.4154 80.4856 81.7908 80.444 81.2302 80.2058C80.6697 79.9676 80.2061 79.547 79.9148 79.0122C79.6234 78.4774 79.5214 77.8598 79.6253 77.2597L62.738 64.1507C61.9428 64.6957 61.036 65.0564 60.0838 65.2065C59.1315 65.3567 58.1578 65.2925 57.2334 65.0187C56.3091 64.7449 55.4575 64.2683 54.7407 63.6237C54.0238 62.9792 53.4598 62.1828 53.0897 61.2926C52.7196 60.4025 52.5527 59.441 52.6012 58.4782C52.6498 57.5153 52.9124 56.5755 53.3702 55.7271C53.8279 54.8786 54.4691 54.143 55.2471 53.5737C56.0251 53.0045 56.9203 52.6159 57.8675 52.4364L57.8651 41.5239H60.2656L60.2668 52.4364ZM61.2257 58.8073C61.2257 59.091 61.1699 59.3719 61.0613 59.634C60.9527 59.8961 60.7936 60.1343 60.593 60.3349C60.3924 60.5355 60.1542 60.6947 59.8921 60.8032C59.63 60.9118 59.349 60.9677 59.0653 60.9677C58.7816 60.9677 58.5007 60.9118 58.2386 60.8032C57.9765 60.6947 57.7383 60.5355 57.5377 60.3349C57.3371 60.1343 57.1779 59.8961 57.0694 59.634C56.9608 59.3719 56.9049 59.091 56.9049 58.8073C56.9049 58.2343 57.1325 57.6848 57.5377 57.2796C57.9428 56.8745 58.4924 56.6469 59.0653 56.6469C59.6383 56.6469 60.1878 56.8745 60.593 57.2796C60.9981 57.6848 61.2257 58.2343 61.2257 58.8073Z" fill="#1FBA4A"/>
<path d="M67.7367 58.7878C67.7371 57.1276 67.2593 55.5024 66.3605 54.1065C65.4616 52.7107 64.1798 51.6033 62.6682 50.9167V41.6509C67.816 42.1034 70.4901 43.7249 72.8845 45.9441C73.0046 46.0569 73.1246 46.1662 73.2398 46.2718C74.26 47.208 75.0714 47.9545 75.4903 49.0707L80.572 62.5997C80.7082 62.9629 80.7544 63.3536 80.7065 63.7384C80.6586 64.1233 80.5182 64.4908 80.2972 64.8095C80.0762 65.1282 79.7812 65.3886 79.4376 65.5683C79.0939 65.7481 78.7118 65.8418 78.324 65.8416H76.3664V68.6489L67.2747 61.5891C67.5826 60.6877 67.7391 59.7416 67.7379 58.789M55.4668 50.9407V41.8129C44.6767 43.4368 41.7805 51.4868 41.7805 55.8964C41.7805 62.8182 46.201 68.1868 48.2738 70.3388V84.732H68.8122V76.9161H73.9648C74.3272 76.9161 74.6729 76.8345 74.9802 76.6905L62.2757 66.8246C60.1759 67.6911 57.8193 67.696 55.716 66.8382C53.6126 65.9804 51.9315 64.3289 51.0365 62.2411C50.1415 60.1533 50.1046 57.797 50.9337 55.6822C51.7628 53.5673 53.3913 51.864 55.4668 50.9407Z" fill="#1FBA4A"/>
</svg>
