<svg width="1437" height="1020" viewBox="0 0 1437 1020" fill="none" xmlns="http://www.w3.org/2000/svg">
<g clip-path="url(#clip0_1_349)">
<path d="M717.905 268C639.905 268 574.12 272.305 564.305 278.023C547.162 283.87 534.262 322.784 534.22 368.958V391.895H529.548C529.07 390.842 528.434 389.867 527.662 389.004C529.686 386.675 530.797 383.693 530.791 380.609V368.958C531.064 366.233 530.259 363.509 528.55 361.368C526.84 359.227 524.361 357.839 521.641 357.5H503.255C500.52 357.844 498.028 359.245 496.314 361.402C494.599 363.56 493.799 366.303 494.084 369.044V369.001V380.652C494.084 383.864 495.262 386.82 497.212 389.068L497.191 389.047C495.167 391.376 494.056 394.358 494.062 397.442V454.967C494.02 455.289 494.02 455.631 494.02 455.996C494.02 461.35 498.027 465.783 503.212 466.425H521.62C523.343 466.337 525.005 465.755 526.407 464.748C527.809 463.742 528.892 462.354 529.527 460.75L529.548 460.686H534.22V563.957C534.22 568.048 538.612 571.838 545.705 573.873V587.28C535.57 588.586 528.562 593.148 528.562 598.374V713.167C527.842 727.393 531.933 741.447 540.177 753.066L540.048 752.873V772.598C540.048 777.802 544.27 782.021 549.477 782.021H588.005C590.506 782.021 592.904 781.029 594.672 779.261C596.44 777.494 597.434 775.097 597.434 772.598V759.084H838.441V772.598C838.441 777.802 842.662 782.021 847.869 782.021H886.398C887.636 782.021 888.862 781.778 890.006 781.304C891.15 780.831 892.189 780.136 893.065 779.261C893.941 778.386 894.635 777.348 895.109 776.204C895.583 775.061 895.827 773.836 895.827 772.598V752.895C904.021 741.282 908.067 727.25 907.312 713.06V713.21V598.416C907.312 593.191 900.219 588.629 890.169 587.323V573.916C897.262 571.881 901.634 568.09 901.655 564V460.771H906.327C907.612 464.027 910.655 466.318 914.234 466.511H932.555C935.29 466.167 937.782 464.767 939.497 462.609C941.211 460.451 942.011 457.708 941.727 454.967V455.01V397.485C941.732 394.395 940.621 391.406 938.598 389.068L938.619 389.09C940.643 386.761 941.754 383.779 941.748 380.695V369.087C942.021 366.361 941.216 363.637 939.507 361.496C937.797 359.355 935.318 357.967 932.598 357.629H914.191C911.456 357.972 908.964 359.373 907.249 361.531C905.535 363.689 904.735 366.432 905.019 369.172V369.13V380.78C905.019 383.993 906.198 386.948 908.148 389.197L908.127 389.176C907.375 390.017 906.747 390.962 906.262 391.981L906.241 392.045H901.569V369.001C901.569 322.591 888.541 283.506 871.269 277.959C860.769 272.262 795.305 268.043 717.905 268.043V268ZM560.448 334.542H875.341C880.891 334.542 885.519 338.482 886.591 343.729L886.612 343.794C888.798 354.716 890.041 367.288 890.041 380.159V380.973V380.93V460.75C890.041 467.089 884.898 472.229 878.555 472.229H557.191C554.145 472.229 551.223 471.02 549.069 468.867C546.915 466.714 545.705 463.795 545.705 460.75V380.181C545.705 367.309 546.948 354.738 549.327 342.573L549.134 343.794C549.65 341.185 551.056 338.837 553.112 337.15C555.167 335.463 557.745 334.541 560.405 334.542H560.448ZM574.398 586.958H598.998C602.062 586.958 604.548 589.357 604.719 592.377V592.398L608.812 666.971V667.271C608.812 670.441 606.241 673.011 603.07 673.011H574.398C572.875 673.011 571.414 672.406 570.337 671.329C569.26 670.253 568.655 668.793 568.655 667.271V592.698C568.655 589.528 571.227 586.958 574.398 586.958ZM836.791 586.958H861.391C864.562 586.958 867.134 589.528 867.134 592.698V667.207C867.134 670.376 864.562 672.946 861.391 672.946H832.698C831.175 672.946 829.714 672.342 828.637 671.265C827.56 670.189 826.955 668.729 826.955 667.207V666.885L831.048 592.334C831.262 589.336 833.748 586.98 836.769 586.98L836.791 586.958ZM623.191 600.665H812.619C814.205 600.665 815.491 601.95 815.491 603.535V606.962C815.491 608.546 814.205 609.831 812.619 609.831H623.191C622.429 609.831 621.699 609.529 621.161 608.991C620.622 608.453 620.32 607.723 620.32 606.962V603.535C620.32 601.95 621.605 600.665 623.191 600.665ZM624.327 621.311H811.462C813.048 621.311 814.334 622.596 814.334 624.181V627.607C814.334 629.192 813.048 630.477 811.462 630.477H624.327C623.565 630.477 622.835 630.175 622.296 629.637C621.758 629.098 621.455 628.368 621.455 627.607V624.181C621.455 622.596 622.741 621.311 624.327 621.311ZM625.484 641.956H810.327C811.912 641.956 813.198 643.241 813.198 644.826V648.253C813.198 649.838 811.912 651.123 810.327 651.123H625.484C624.746 651.123 624.037 650.838 623.505 650.327C622.974 649.815 622.662 649.118 622.634 648.381V644.955C622.634 643.37 623.919 642.085 625.505 642.085L625.484 641.956ZM626.641 662.602H809.169C810.755 662.602 812.041 663.887 812.041 665.472V668.899C812.041 670.483 810.755 671.768 809.169 671.768H626.641C625.879 671.768 625.149 671.466 624.611 670.928C624.072 670.39 623.77 669.66 623.77 668.899V665.472C623.77 663.887 625.055 662.602 626.641 662.602Z" fill="url(#paint0_linear_1_349)"/>
</g>
<path d="M711 252V200H431" stroke="#1FBA4A" stroke-opacity="0.91"/>
<path d="M733 762L733 814L1013 814" stroke="#1FBA4A" stroke-opacity="0.91"/>
<path d="M740 252V200H1020" stroke="#1FBA4A" stroke-opacity="0.91"/>
<path d="M704 762L704 814L424 814" stroke="#1FBA4A" stroke-opacity="0.91"/>
<g clip-path="url(#clip1_1_349)">
<rect x="1020" width="417" height="404" rx="9" fill="#FCFCFE"/>
<path d="M1069.6 203V194.35L1089.81 175.636C1091.53 173.973 1092.97 172.476 1094.14 171.145C1095.32 169.814 1096.22 168.511 1096.83 167.236C1097.44 165.942 1097.74 164.547 1097.74 163.05C1097.74 161.386 1097.36 159.954 1096.61 158.752C1095.85 157.533 1094.81 156.599 1093.5 155.952C1092.19 155.287 1090.7 154.954 1089.04 154.954C1087.3 154.954 1085.78 155.305 1084.49 156.008C1083.2 156.71 1082.2 157.717 1081.5 159.03C1080.79 160.342 1080.44 161.904 1080.44 163.715H1069.05C1069.05 160 1069.89 156.775 1071.57 154.039C1073.25 151.304 1075.61 149.188 1078.64 147.691C1081.67 146.193 1085.16 145.445 1089.12 145.445C1093.19 145.445 1096.73 146.166 1099.74 147.607C1102.77 149.031 1105.13 151.008 1106.81 153.54C1108.49 156.072 1109.33 158.974 1109.33 162.246C1109.33 164.39 1108.91 166.506 1108.06 168.594C1107.22 170.683 1105.74 173.003 1103.59 175.553C1101.45 178.085 1098.43 181.126 1094.53 184.674L1086.24 192.798V193.186H1110.08V203H1069.6ZM1139.96 203.776C1135.69 203.776 1131.89 203.083 1128.56 201.697C1125.26 200.292 1122.66 198.379 1120.77 195.958C1118.89 193.537 1117.95 190.792 1117.95 187.724C1117.95 185.358 1118.48 183.187 1119.55 181.209C1120.64 179.213 1122.12 177.559 1123.99 176.246C1125.86 174.916 1127.95 174.065 1130.26 173.696V173.308C1127.22 172.698 1124.77 171.228 1122.88 168.899C1121 166.552 1120.05 163.826 1120.05 160.721C1120.05 157.782 1120.91 155.167 1122.63 152.875C1124.35 150.565 1126.71 148.753 1129.7 147.441C1132.71 146.11 1136.13 145.445 1139.96 145.445C1143.78 145.445 1147.19 146.11 1150.19 147.441C1153.2 148.772 1155.57 150.592 1157.29 152.903C1159.01 155.194 1159.87 157.801 1159.89 160.721C1159.87 163.844 1158.91 166.571 1157.01 168.899C1155.11 171.228 1152.67 172.698 1149.69 173.308V173.696C1151.96 174.065 1154.02 174.916 1155.87 176.246C1157.74 177.559 1159.22 179.213 1160.31 181.209C1161.42 183.187 1161.98 185.358 1162 187.724C1161.98 190.792 1161.03 193.537 1159.14 195.958C1157.26 198.379 1154.65 200.292 1151.33 201.697C1148.02 203.083 1144.23 203.776 1139.96 203.776ZM1139.96 194.96C1141.86 194.96 1143.53 194.618 1144.95 193.934C1146.37 193.232 1147.48 192.271 1148.28 191.051C1149.09 189.813 1149.5 188.389 1149.5 186.781C1149.5 185.136 1149.08 183.686 1148.25 182.429C1147.42 181.153 1146.29 180.155 1144.87 179.435C1143.44 178.695 1141.81 178.326 1139.96 178.326C1138.13 178.326 1136.49 178.695 1135.05 179.435C1133.61 180.155 1132.47 181.153 1131.64 182.429C1130.83 183.686 1130.42 185.136 1130.42 186.781C1130.42 188.389 1130.82 189.813 1131.61 191.051C1132.41 192.271 1133.53 193.232 1134.97 193.934C1136.41 194.618 1138.07 194.96 1139.96 194.96ZM1139.96 169.593C1141.55 169.593 1142.96 169.269 1144.2 168.622C1145.44 167.975 1146.41 167.079 1147.11 165.933C1147.81 164.787 1148.17 163.466 1148.17 161.968C1148.17 160.49 1147.81 159.196 1147.11 158.087C1146.41 156.96 1145.45 156.082 1144.23 155.453C1143.01 154.806 1141.59 154.483 1139.96 154.483C1138.35 154.483 1136.93 154.806 1135.69 155.453C1134.45 156.082 1133.48 156.96 1132.78 158.087C1132.09 159.196 1131.75 160.49 1131.75 161.968C1131.75 163.466 1132.1 164.787 1132.81 165.933C1133.51 167.079 1134.48 167.975 1135.72 168.622C1136.96 169.269 1138.37 169.593 1139.96 169.593ZM1207.64 199.923V160.665H1217.57V199.923H1207.64ZM1192.97 185.257V175.331H1232.23V185.257H1192.97Z" fill="#1FBA4A"/>
<path d="M1068.04 267V239.364H1072.21V251.374H1085.98V239.364H1090.17V267H1085.98V254.95H1072.21V267H1068.04ZM1101.95 267.459C1100.63 267.459 1099.45 267.216 1098.38 266.73C1097.32 266.235 1096.48 265.52 1095.86 264.585C1095.25 263.649 1094.94 262.502 1094.94 261.143C1094.94 259.974 1095.17 259.011 1095.62 258.256C1096.07 257.5 1096.68 256.902 1097.44 256.461C1098.21 256.02 1099.06 255.687 1100 255.462C1100.95 255.237 1101.91 255.067 1102.89 254.95C1104.13 254.806 1105.14 254.689 1105.91 254.599C1106.69 254.5 1107.25 254.342 1107.6 254.126C1107.95 253.911 1108.13 253.56 1108.13 253.074V252.979C1108.13 251.801 1107.79 250.888 1107.13 250.24C1106.47 249.592 1105.49 249.268 1104.19 249.268C1102.83 249.268 1101.76 249.57 1100.98 250.173C1100.2 250.766 1099.67 251.428 1099.37 252.156L1095.58 251.293C1096.03 250.033 1096.68 249.017 1097.55 248.243C1098.42 247.46 1099.42 246.893 1100.56 246.543C1101.69 246.183 1102.88 246.003 1104.13 246.003C1104.96 246.003 1105.84 246.102 1106.76 246.3C1107.7 246.489 1108.57 246.839 1109.38 247.352C1110.2 247.865 1110.87 248.598 1111.39 249.552C1111.92 250.496 1112.18 251.724 1112.18 253.236V267H1108.24V264.166H1108.07C1107.81 264.688 1107.42 265.201 1106.9 265.705C1106.38 266.208 1105.71 266.627 1104.89 266.96C1104.07 267.292 1103.09 267.459 1101.95 267.459ZM1102.82 264.22C1103.94 264.22 1104.89 264 1105.69 263.559C1106.49 263.118 1107.09 262.542 1107.51 261.832C1107.93 261.112 1108.14 260.343 1108.14 259.524V256.852C1108 256.996 1107.72 257.131 1107.3 257.257C1106.9 257.374 1106.44 257.478 1105.91 257.567C1105.39 257.648 1104.88 257.725 1104.39 257.797C1103.9 257.86 1103.48 257.914 1103.15 257.959C1102.37 258.058 1101.65 258.224 1101 258.458C1100.36 258.692 1099.85 259.029 1099.46 259.47C1099.09 259.902 1098.9 260.478 1098.9 261.197C1098.9 262.196 1099.27 262.952 1100 263.464C1100.74 263.968 1101.68 264.22 1102.82 264.22ZM1117.55 274.773V246.273H1121.49V249.633H1121.83C1122.06 249.201 1122.4 248.702 1122.84 248.135C1123.28 247.568 1123.89 247.073 1124.68 246.651C1125.46 246.219 1126.49 246.003 1127.78 246.003C1129.45 246.003 1130.95 246.426 1132.26 247.271C1133.57 248.117 1134.6 249.336 1135.35 250.928C1136.1 252.521 1136.48 254.437 1136.48 256.677C1136.48 258.917 1136.11 260.838 1135.36 262.439C1134.62 264.031 1133.59 265.259 1132.29 266.123C1130.98 266.978 1129.49 267.405 1127.82 267.405C1126.56 267.405 1125.53 267.193 1124.73 266.771C1123.94 266.348 1123.32 265.853 1122.87 265.286C1122.42 264.719 1122.07 264.216 1121.83 263.775H1121.59V274.773H1117.55ZM1121.5 256.636C1121.5 258.094 1121.72 259.371 1122.14 260.469C1122.56 261.566 1123.17 262.425 1123.97 263.046C1124.77 263.658 1125.75 263.964 1126.92 263.964C1128.12 263.964 1129.13 263.644 1129.94 263.006C1130.75 262.358 1131.36 261.481 1131.77 260.374C1132.2 259.268 1132.41 258.022 1132.41 256.636C1132.41 255.269 1132.2 254.041 1131.79 252.952C1131.38 251.864 1130.77 251.005 1129.95 250.375C1129.14 249.745 1128.13 249.43 1126.92 249.43C1125.75 249.43 1124.76 249.732 1123.95 250.335C1123.15 250.937 1122.54 251.778 1122.12 252.858C1121.71 253.937 1121.5 255.197 1121.5 256.636ZM1141 274.773V246.273H1144.94V249.633H1145.28C1145.51 249.201 1145.85 248.702 1146.29 248.135C1146.73 247.568 1147.35 247.073 1148.13 246.651C1148.91 246.219 1149.95 246.003 1151.23 246.003C1152.91 246.003 1154.4 246.426 1155.71 247.271C1157.03 248.117 1158.06 249.336 1158.8 250.928C1159.56 252.521 1159.94 254.437 1159.94 256.677C1159.94 258.917 1159.56 260.838 1158.82 262.439C1158.07 264.031 1157.04 265.259 1155.74 266.123C1154.43 266.978 1152.95 267.405 1151.27 267.405C1150.01 267.405 1148.98 267.193 1148.18 266.771C1147.39 266.348 1146.77 265.853 1146.32 265.286C1145.87 264.719 1145.52 264.216 1145.28 263.775H1145.04V274.773H1141ZM1144.96 256.636C1144.96 258.094 1145.17 259.371 1145.59 260.469C1146.01 261.566 1146.63 262.425 1147.43 263.046C1148.23 263.658 1149.21 263.964 1150.37 263.964C1151.57 263.964 1152.58 263.644 1153.39 263.006C1154.2 262.358 1154.81 261.481 1155.23 260.374C1155.65 259.268 1155.86 258.022 1155.86 256.636C1155.86 255.269 1155.65 254.041 1155.24 252.952C1154.84 251.864 1154.22 251.005 1153.4 250.375C1152.59 249.745 1151.58 249.43 1150.37 249.43C1149.2 249.43 1148.21 249.732 1147.4 250.335C1146.6 250.937 1145.99 251.778 1145.58 252.858C1145.16 253.937 1144.96 255.197 1144.96 256.636ZM1166.3 274.773C1165.7 274.773 1165.15 274.723 1164.66 274.624C1164.16 274.534 1163.79 274.435 1163.55 274.327L1164.52 271.021C1165.26 271.219 1165.92 271.305 1166.49 271.278C1167.07 271.251 1167.57 271.035 1168.02 270.63C1168.47 270.225 1168.86 269.564 1169.2 268.646L1169.7 267.27L1162.12 246.273H1166.44L1171.69 262.358H1171.9L1177.15 246.273H1181.48L1172.94 269.766C1172.55 270.846 1172.04 271.759 1171.43 272.506C1170.82 273.261 1170.09 273.828 1169.24 274.206C1168.4 274.584 1167.42 274.773 1166.3 274.773ZM1218.61 248.351H1214.4C1214.24 247.451 1213.94 246.66 1213.49 245.976C1213.05 245.292 1212.51 244.712 1211.88 244.235C1211.24 243.758 1210.52 243.398 1209.73 243.156C1208.95 242.913 1208.12 242.791 1207.23 242.791C1205.64 242.791 1204.22 243.192 1202.96 243.992C1201.71 244.793 1200.72 245.967 1199.99 247.514C1199.27 249.062 1198.91 250.951 1198.91 253.182C1198.91 255.431 1199.27 257.329 1199.99 258.876C1200.72 260.424 1201.71 261.593 1202.97 262.385C1204.23 263.177 1205.65 263.572 1207.22 263.572C1208.09 263.572 1208.92 263.455 1209.7 263.222C1210.49 262.979 1211.21 262.623 1211.85 262.156C1212.49 261.688 1213.03 261.116 1213.47 260.442C1213.92 259.758 1214.23 258.975 1214.4 258.094L1218.61 258.107C1218.38 259.466 1217.95 260.716 1217.3 261.859C1216.66 262.992 1215.84 263.973 1214.83 264.8C1213.83 265.619 1212.69 266.253 1211.4 266.703C1210.12 267.153 1208.71 267.378 1207.19 267.378C1204.8 267.378 1202.67 266.811 1200.8 265.678C1198.93 264.535 1197.45 262.902 1196.37 260.779C1195.3 258.656 1194.76 256.124 1194.76 253.182C1194.76 250.231 1195.3 247.699 1196.38 245.585C1197.46 243.461 1198.94 241.833 1200.81 240.7C1202.68 239.557 1204.81 238.986 1207.19 238.986C1208.66 238.986 1210.03 239.197 1211.3 239.62C1212.57 240.034 1213.72 240.646 1214.74 241.455C1215.75 242.256 1216.59 243.237 1217.26 244.397C1217.93 245.549 1218.38 246.866 1218.61 248.351ZM1236.4 258.404V246.273H1240.45V267H1236.49V263.411H1236.27C1235.79 264.517 1235.03 265.439 1233.98 266.177C1232.93 266.906 1231.63 267.27 1230.08 267.27C1228.74 267.27 1227.57 266.978 1226.54 266.393C1225.52 265.799 1224.72 264.922 1224.14 263.761C1223.56 262.601 1223.27 261.166 1223.27 259.457V246.273H1227.31V258.971C1227.31 260.383 1227.7 261.508 1228.48 262.344C1229.27 263.181 1230.28 263.599 1231.53 263.599C1232.29 263.599 1233.04 263.411 1233.79 263.033C1234.54 262.655 1235.17 262.084 1235.66 261.319C1236.17 260.554 1236.41 259.583 1236.4 258.404ZM1261.41 251.333L1257.75 251.981C1257.6 251.513 1257.35 251.068 1257.02 250.645C1256.7 250.222 1256.26 249.876 1255.7 249.606C1255.14 249.336 1254.44 249.201 1253.61 249.201C1252.46 249.201 1251.51 249.457 1250.75 249.97C1249.98 250.474 1249.6 251.126 1249.6 251.927C1249.6 252.62 1249.86 253.177 1250.37 253.6C1250.88 254.023 1251.71 254.369 1252.85 254.639L1256.14 255.395C1258.05 255.836 1259.47 256.515 1260.41 257.433C1261.34 258.35 1261.81 259.542 1261.81 261.009C1261.81 262.25 1261.45 263.357 1260.73 264.328C1260.02 265.291 1259.03 266.046 1257.75 266.595C1256.48 267.144 1255.01 267.418 1253.34 267.418C1251.02 267.418 1249.12 266.924 1247.66 265.934C1246.19 264.935 1245.29 263.518 1244.96 261.683L1248.86 261.089C1249.1 262.106 1249.6 262.875 1250.35 263.397C1251.11 263.91 1252.1 264.166 1253.31 264.166C1254.63 264.166 1255.69 263.892 1256.48 263.343C1257.27 262.785 1257.67 262.106 1257.67 261.305C1257.67 260.658 1257.43 260.113 1256.94 259.673C1256.46 259.232 1255.73 258.899 1254.74 258.674L1251.23 257.905C1249.3 257.464 1247.87 256.762 1246.94 255.8C1246.02 254.837 1245.56 253.618 1245.56 252.143C1245.56 250.919 1245.91 249.849 1246.59 248.931C1247.27 248.013 1248.22 247.298 1249.42 246.786C1250.63 246.264 1252.01 246.003 1253.57 246.003C1255.81 246.003 1257.57 246.489 1258.86 247.46C1260.14 248.423 1260.99 249.714 1261.41 251.333ZM1275.92 246.273V249.511H1264.6V246.273H1275.92ZM1267.64 241.307H1271.67V260.914C1271.67 261.697 1271.79 262.286 1272.02 262.682C1272.26 263.069 1272.56 263.334 1272.93 263.478C1273.31 263.613 1273.71 263.68 1274.16 263.68C1274.48 263.68 1274.76 263.658 1275.01 263.613C1275.25 263.568 1275.44 263.532 1275.57 263.505L1276.3 266.838C1276.07 266.928 1275.73 267.018 1275.3 267.108C1274.87 267.207 1274.33 267.261 1273.68 267.27C1272.62 267.288 1271.63 267.099 1270.71 266.703C1269.8 266.307 1269.05 265.696 1268.49 264.868C1267.92 264.04 1267.64 263.001 1267.64 261.751V241.307ZM1288.89 267.418C1286.95 267.418 1285.26 266.973 1283.81 266.082C1282.36 265.192 1281.23 263.946 1280.43 262.344C1279.63 260.743 1279.23 258.872 1279.23 256.731C1279.23 254.581 1279.63 252.701 1280.43 251.09C1281.23 249.48 1282.36 248.229 1283.81 247.339C1285.26 246.448 1286.95 246.003 1288.89 246.003C1290.84 246.003 1292.53 246.448 1293.98 247.339C1295.43 248.229 1296.55 249.48 1297.36 251.09C1298.16 252.701 1298.56 254.581 1298.56 256.731C1298.56 258.872 1298.16 260.743 1297.36 262.344C1296.55 263.946 1295.43 265.192 1293.98 266.082C1292.53 266.973 1290.84 267.418 1288.89 267.418ZM1288.91 264.031C1290.17 264.031 1291.21 263.698 1292.04 263.033C1292.87 262.367 1293.48 261.481 1293.87 260.374C1294.28 259.268 1294.48 258.049 1294.48 256.717C1294.48 255.395 1294.28 254.18 1293.87 253.074C1293.48 251.958 1292.87 251.063 1292.04 250.388C1291.21 249.714 1290.17 249.376 1288.91 249.376C1287.64 249.376 1286.59 249.714 1285.75 250.388C1284.92 251.063 1284.31 251.958 1283.9 253.074C1283.51 254.18 1283.31 255.395 1283.31 256.717C1283.31 258.049 1283.51 259.268 1283.9 260.374C1284.31 261.481 1284.92 262.367 1285.75 263.033C1286.59 263.698 1287.64 264.031 1288.91 264.031ZM1303.06 267V246.273H1306.93V249.646H1307.19C1307.62 248.504 1308.33 247.613 1309.31 246.974C1310.29 246.327 1311.46 246.003 1312.83 246.003C1314.22 246.003 1315.38 246.327 1316.31 246.974C1317.26 247.622 1317.95 248.513 1318.4 249.646H1318.62C1319.11 248.54 1319.9 247.658 1320.98 247.001C1322.06 246.336 1323.35 246.003 1324.84 246.003C1326.72 246.003 1328.25 246.592 1329.44 247.771C1330.64 248.949 1331.24 250.726 1331.24 253.101V267H1327.2V253.479C1327.2 252.075 1326.82 251.059 1326.05 250.429C1325.29 249.799 1324.38 249.484 1323.31 249.484C1322 249.484 1320.98 249.889 1320.25 250.699C1319.52 251.5 1319.16 252.53 1319.16 253.789V267H1315.14V253.222C1315.14 252.098 1314.79 251.194 1314.08 250.51C1313.38 249.826 1312.47 249.484 1311.35 249.484C1310.58 249.484 1309.87 249.687 1309.23 250.092C1308.59 250.487 1308.07 251.041 1307.68 251.751C1307.29 252.462 1307.09 253.285 1307.09 254.221V267H1303.06ZM1345.58 267.418C1343.54 267.418 1341.78 266.982 1340.3 266.109C1338.83 265.228 1337.7 263.991 1336.9 262.398C1336.11 260.797 1335.71 258.921 1335.71 256.771C1335.71 254.648 1336.11 252.777 1336.9 251.158C1337.7 249.538 1338.82 248.274 1340.25 247.366C1341.69 246.457 1343.37 246.003 1345.29 246.003C1346.46 246.003 1347.6 246.196 1348.69 246.583C1349.79 246.97 1350.78 247.577 1351.65 248.405C1352.52 249.232 1353.21 250.308 1353.71 251.63C1354.22 252.943 1354.47 254.54 1354.47 256.42V257.851H1337.99V254.828H1350.52C1350.52 253.767 1350.3 252.826 1349.87 252.008C1349.44 251.18 1348.83 250.528 1348.05 250.051C1347.27 249.574 1346.36 249.336 1345.32 249.336C1344.19 249.336 1343.2 249.615 1342.35 250.173C1341.52 250.721 1340.87 251.441 1340.41 252.332C1339.96 253.213 1339.73 254.171 1339.73 255.206V257.567C1339.73 258.953 1339.98 260.131 1340.46 261.103C1340.96 262.075 1341.65 262.817 1342.53 263.33C1343.41 263.833 1344.44 264.085 1345.62 264.085C1346.38 264.085 1347.08 263.977 1347.71 263.761C1348.34 263.536 1348.88 263.204 1349.34 262.763C1349.8 262.322 1350.15 261.778 1350.39 261.13L1354.21 261.818C1353.91 262.943 1353.36 263.928 1352.57 264.773C1351.78 265.61 1350.8 266.262 1349.61 266.73C1348.43 267.189 1347.09 267.418 1345.58 267.418ZM1358.95 267V246.273H1362.85V249.565H1363.06C1363.44 248.45 1364.11 247.573 1365.06 246.934C1366.02 246.286 1367.11 245.962 1368.33 245.962C1368.58 245.962 1368.87 245.971 1369.22 245.989C1369.57 246.007 1369.84 246.03 1370.04 246.057V249.916C1369.88 249.871 1369.59 249.822 1369.18 249.768C1368.76 249.705 1368.35 249.673 1367.93 249.673C1366.98 249.673 1366.13 249.876 1365.38 250.281C1364.65 250.676 1364.06 251.23 1363.63 251.94C1363.2 252.642 1362.98 253.443 1362.98 254.342V267H1358.95ZM1389.06 251.333L1385.41 251.981C1385.25 251.513 1385.01 251.068 1384.68 250.645C1384.35 250.222 1383.91 249.876 1383.35 249.606C1382.8 249.336 1382.1 249.201 1381.26 249.201C1380.12 249.201 1379.17 249.457 1378.4 249.97C1377.64 250.474 1377.26 251.126 1377.26 251.927C1377.26 252.62 1377.51 253.177 1378.02 253.6C1378.54 254.023 1379.36 254.369 1380.51 254.639L1383.8 255.395C1385.71 255.836 1387.13 256.515 1388.06 257.433C1389 258.35 1389.47 259.542 1389.47 261.009C1389.47 262.25 1389.11 263.357 1388.39 264.328C1387.68 265.291 1386.68 266.046 1385.41 266.595C1384.14 267.144 1382.67 267.418 1380.99 267.418C1378.67 267.418 1376.78 266.924 1375.31 265.934C1373.85 264.935 1372.95 263.518 1372.61 261.683L1376.51 261.089C1376.76 262.106 1377.26 262.875 1378.01 263.397C1378.77 263.91 1379.75 264.166 1380.97 264.166C1382.29 264.166 1383.35 263.892 1384.14 263.343C1384.93 262.785 1385.32 262.106 1385.32 261.305C1385.32 260.658 1385.08 260.113 1384.6 259.673C1384.12 259.232 1383.39 258.899 1382.4 258.674L1378.89 257.905C1376.95 257.464 1375.52 256.762 1374.6 255.8C1373.68 254.837 1373.22 253.618 1373.22 252.143C1373.22 250.919 1373.56 249.849 1374.25 248.931C1374.93 248.013 1375.87 247.298 1377.08 246.786C1378.29 246.264 1379.67 246.003 1381.22 246.003C1383.46 246.003 1385.23 246.489 1386.51 247.46C1387.8 248.423 1388.65 249.714 1389.06 251.333Z" fill="#17191C"/>
</g>
<g clip-path="url(#clip2_1_349)">
<rect x="1020" y="612" width="417" height="404" rx="9" fill="#FCFCFE"/>
<path d="M1069.6 815V806.35L1089.81 787.636C1091.53 785.973 1092.97 784.476 1094.14 783.145C1095.32 781.814 1096.22 780.511 1096.83 779.236C1097.44 777.942 1097.74 776.547 1097.74 775.05C1097.74 773.386 1097.36 771.954 1096.61 770.752C1095.85 769.533 1094.81 768.599 1093.5 767.952C1092.19 767.287 1090.7 766.954 1089.04 766.954C1087.3 766.954 1085.78 767.305 1084.49 768.008C1083.2 768.71 1082.2 769.717 1081.5 771.03C1080.79 772.342 1080.44 773.904 1080.44 775.715H1069.05C1069.05 772 1069.89 768.775 1071.57 766.039C1073.25 763.304 1075.61 761.188 1078.64 759.691C1081.67 758.193 1085.16 757.445 1089.12 757.445C1093.19 757.445 1096.73 758.166 1099.74 759.607C1102.77 761.031 1105.13 763.008 1106.81 765.54C1108.49 768.072 1109.33 770.974 1109.33 774.246C1109.33 776.39 1108.91 778.506 1108.06 780.594C1107.22 782.683 1105.74 785.003 1103.59 787.553C1101.45 790.085 1098.43 793.126 1094.53 796.674L1086.24 804.798V805.186H1110.08V815H1069.6ZM1139.96 815.776C1135.69 815.776 1131.89 815.083 1128.56 813.697C1125.26 812.292 1122.66 810.379 1120.77 807.958C1118.89 805.537 1117.95 802.792 1117.95 799.724C1117.95 797.358 1118.48 795.187 1119.55 793.209C1120.64 791.213 1122.12 789.559 1123.99 788.246C1125.86 786.916 1127.95 786.065 1130.26 785.696V785.308C1127.22 784.698 1124.77 783.228 1122.88 780.899C1121 778.552 1120.05 775.826 1120.05 772.721C1120.05 769.782 1120.91 767.167 1122.63 764.875C1124.35 762.565 1126.71 760.753 1129.7 759.441C1132.71 758.11 1136.13 757.445 1139.96 757.445C1143.78 757.445 1147.19 758.11 1150.19 759.441C1153.2 760.772 1155.57 762.592 1157.29 764.903C1159.01 767.194 1159.87 769.801 1159.89 772.721C1159.87 775.844 1158.91 778.571 1157.01 780.899C1155.11 783.228 1152.67 784.698 1149.69 785.308V785.696C1151.96 786.065 1154.02 786.916 1155.87 788.246C1157.74 789.559 1159.22 791.213 1160.31 793.209C1161.42 795.187 1161.98 797.358 1162 799.724C1161.98 802.792 1161.03 805.537 1159.14 807.958C1157.26 810.379 1154.65 812.292 1151.33 813.697C1148.02 815.083 1144.23 815.776 1139.96 815.776ZM1139.96 806.96C1141.86 806.96 1143.53 806.618 1144.95 805.934C1146.37 805.232 1147.48 804.271 1148.28 803.051C1149.09 801.813 1149.5 800.389 1149.5 798.781C1149.5 797.136 1149.08 795.686 1148.25 794.429C1147.42 793.153 1146.29 792.155 1144.87 791.435C1143.44 790.695 1141.81 790.326 1139.96 790.326C1138.13 790.326 1136.49 790.695 1135.05 791.435C1133.61 792.155 1132.47 793.153 1131.64 794.429C1130.83 795.686 1130.42 797.136 1130.42 798.781C1130.42 800.389 1130.82 801.813 1131.61 803.051C1132.41 804.271 1133.53 805.232 1134.97 805.934C1136.41 806.618 1138.07 806.96 1139.96 806.96ZM1139.96 781.593C1141.55 781.593 1142.96 781.269 1144.2 780.622C1145.44 779.975 1146.41 779.079 1147.11 777.933C1147.81 776.787 1148.17 775.466 1148.17 773.968C1148.17 772.49 1147.81 771.196 1147.11 770.087C1146.41 768.96 1145.45 768.082 1144.23 767.453C1143.01 766.806 1141.59 766.483 1139.96 766.483C1138.35 766.483 1136.93 766.806 1135.69 767.453C1134.45 768.082 1133.48 768.96 1132.78 770.087C1132.09 771.196 1131.75 772.49 1131.75 773.968C1131.75 775.466 1132.1 776.787 1132.81 777.933C1133.51 779.079 1134.48 779.975 1135.72 780.622C1136.96 781.269 1138.37 781.593 1139.96 781.593ZM1207.64 811.923V772.665H1217.57V811.923H1207.64ZM1192.97 797.257V787.331H1232.23V797.257H1192.97Z" fill="#1FBA4A"/>
<path d="M1068.04 879V851.364H1072.21V863.374H1085.98V851.364H1090.17V879H1085.98V866.95H1072.21V879H1068.04ZM1101.95 879.459C1100.63 879.459 1099.45 879.216 1098.38 878.73C1097.32 878.235 1096.48 877.52 1095.86 876.585C1095.25 875.649 1094.94 874.502 1094.94 873.143C1094.94 871.974 1095.17 871.011 1095.62 870.256C1096.07 869.5 1096.68 868.902 1097.44 868.461C1098.21 868.02 1099.06 867.687 1100 867.462C1100.95 867.237 1101.91 867.067 1102.89 866.95C1104.13 866.806 1105.14 866.689 1105.91 866.599C1106.69 866.5 1107.25 866.342 1107.6 866.126C1107.95 865.911 1108.13 865.56 1108.13 865.074V864.979C1108.13 863.801 1107.79 862.888 1107.13 862.24C1106.47 861.592 1105.49 861.268 1104.19 861.268C1102.83 861.268 1101.76 861.57 1100.98 862.173C1100.2 862.766 1099.67 863.428 1099.37 864.156L1095.58 863.293C1096.03 862.033 1096.68 861.017 1097.55 860.243C1098.42 859.46 1099.42 858.893 1100.56 858.543C1101.69 858.183 1102.88 858.003 1104.13 858.003C1104.96 858.003 1105.84 858.102 1106.76 858.3C1107.7 858.489 1108.57 858.839 1109.38 859.352C1110.2 859.865 1110.87 860.598 1111.39 861.552C1111.92 862.496 1112.18 863.724 1112.18 865.236V879H1108.24V876.166H1108.07C1107.81 876.688 1107.42 877.201 1106.9 877.705C1106.38 878.208 1105.71 878.627 1104.89 878.96C1104.07 879.292 1103.09 879.459 1101.95 879.459ZM1102.82 876.22C1103.94 876.22 1104.89 876 1105.69 875.559C1106.49 875.118 1107.09 874.542 1107.51 873.832C1107.93 873.112 1108.14 872.343 1108.14 871.524V868.852C1108 868.996 1107.72 869.131 1107.3 869.257C1106.9 869.374 1106.44 869.478 1105.91 869.567C1105.39 869.648 1104.88 869.725 1104.39 869.797C1103.9 869.86 1103.48 869.914 1103.15 869.959C1102.37 870.058 1101.65 870.224 1101 870.458C1100.36 870.692 1099.85 871.029 1099.46 871.47C1099.09 871.902 1098.9 872.478 1098.9 873.197C1098.9 874.196 1099.27 874.952 1100 875.464C1100.74 875.968 1101.68 876.22 1102.82 876.22ZM1117.55 886.773V858.273H1121.49V861.633H1121.83C1122.06 861.201 1122.4 860.702 1122.84 860.135C1123.28 859.568 1123.89 859.073 1124.68 858.651C1125.46 858.219 1126.49 858.003 1127.78 858.003C1129.45 858.003 1130.95 858.426 1132.26 859.271C1133.57 860.117 1134.6 861.336 1135.35 862.928C1136.1 864.521 1136.48 866.437 1136.48 868.677C1136.48 870.917 1136.11 872.838 1135.36 874.439C1134.62 876.031 1133.59 877.259 1132.29 878.123C1130.98 878.978 1129.49 879.405 1127.82 879.405C1126.56 879.405 1125.53 879.193 1124.73 878.771C1123.94 878.348 1123.32 877.853 1122.87 877.286C1122.42 876.719 1122.07 876.216 1121.83 875.775H1121.59V886.773H1117.55ZM1121.5 868.636C1121.5 870.094 1121.72 871.371 1122.14 872.469C1122.56 873.566 1123.17 874.425 1123.97 875.046C1124.77 875.658 1125.75 875.964 1126.92 875.964C1128.12 875.964 1129.13 875.644 1129.94 875.006C1130.75 874.358 1131.36 873.481 1131.77 872.374C1132.2 871.268 1132.41 870.022 1132.41 868.636C1132.41 867.269 1132.2 866.041 1131.79 864.952C1131.38 863.864 1130.77 863.005 1129.95 862.375C1129.14 861.745 1128.13 861.43 1126.92 861.43C1125.75 861.43 1124.76 861.732 1123.95 862.335C1123.15 862.937 1122.54 863.778 1122.12 864.858C1121.71 865.937 1121.5 867.197 1121.5 868.636ZM1141 886.773V858.273H1144.94V861.633H1145.28C1145.51 861.201 1145.85 860.702 1146.29 860.135C1146.73 859.568 1147.35 859.073 1148.13 858.651C1148.91 858.219 1149.95 858.003 1151.23 858.003C1152.91 858.003 1154.4 858.426 1155.71 859.271C1157.03 860.117 1158.06 861.336 1158.8 862.928C1159.56 864.521 1159.94 866.437 1159.94 868.677C1159.94 870.917 1159.56 872.838 1158.82 874.439C1158.07 876.031 1157.04 877.259 1155.74 878.123C1154.43 878.978 1152.95 879.405 1151.27 879.405C1150.01 879.405 1148.98 879.193 1148.18 878.771C1147.39 878.348 1146.77 877.853 1146.32 877.286C1145.87 876.719 1145.52 876.216 1145.28 875.775H1145.04V886.773H1141ZM1144.96 868.636C1144.96 870.094 1145.17 871.371 1145.59 872.469C1146.01 873.566 1146.63 874.425 1147.43 875.046C1148.23 875.658 1149.21 875.964 1150.37 875.964C1151.57 875.964 1152.58 875.644 1153.39 875.006C1154.2 874.358 1154.81 873.481 1155.23 872.374C1155.65 871.268 1155.86 870.022 1155.86 868.636C1155.86 867.269 1155.65 866.041 1155.24 864.952C1154.84 863.864 1154.22 863.005 1153.4 862.375C1152.59 861.745 1151.58 861.43 1150.37 861.43C1149.2 861.43 1148.21 861.732 1147.4 862.335C1146.6 862.937 1145.99 863.778 1145.58 864.858C1145.16 865.937 1144.96 867.197 1144.96 868.636ZM1166.3 886.773C1165.7 886.773 1165.15 886.723 1164.66 886.624C1164.16 886.534 1163.79 886.435 1163.55 886.327L1164.52 883.021C1165.26 883.219 1165.92 883.305 1166.49 883.278C1167.07 883.251 1167.57 883.035 1168.02 882.63C1168.47 882.225 1168.86 881.564 1169.2 880.646L1169.7 879.27L1162.12 858.273H1166.44L1171.69 874.358H1171.9L1177.15 858.273H1181.48L1172.94 881.766C1172.55 882.846 1172.04 883.759 1171.43 884.506C1170.82 885.261 1170.09 885.828 1169.24 886.206C1168.4 886.584 1167.42 886.773 1166.3 886.773ZM1218.61 860.351H1214.4C1214.24 859.451 1213.94 858.66 1213.49 857.976C1213.05 857.292 1212.51 856.712 1211.88 856.235C1211.24 855.758 1210.52 855.398 1209.73 855.156C1208.95 854.913 1208.12 854.791 1207.23 854.791C1205.64 854.791 1204.22 855.192 1202.96 855.992C1201.71 856.793 1200.72 857.967 1199.99 859.514C1199.27 861.062 1198.91 862.951 1198.91 865.182C1198.91 867.431 1199.27 869.329 1199.99 870.876C1200.72 872.424 1201.71 873.593 1202.97 874.385C1204.23 875.177 1205.65 875.572 1207.22 875.572C1208.09 875.572 1208.92 875.455 1209.7 875.222C1210.49 874.979 1211.21 874.623 1211.85 874.156C1212.49 873.688 1213.03 873.116 1213.47 872.442C1213.92 871.758 1214.23 870.975 1214.4 870.094L1218.61 870.107C1218.38 871.466 1217.95 872.716 1217.3 873.859C1216.66 874.992 1215.84 875.973 1214.83 876.8C1213.83 877.619 1212.69 878.253 1211.4 878.703C1210.12 879.153 1208.71 879.378 1207.19 879.378C1204.8 879.378 1202.67 878.811 1200.8 877.678C1198.93 876.535 1197.45 874.902 1196.37 872.779C1195.3 870.656 1194.76 868.124 1194.76 865.182C1194.76 862.231 1195.3 859.699 1196.38 857.585C1197.46 855.461 1198.94 853.833 1200.81 852.7C1202.68 851.557 1204.81 850.986 1207.19 850.986C1208.66 850.986 1210.03 851.197 1211.3 851.62C1212.57 852.034 1213.72 852.646 1214.74 853.455C1215.75 854.256 1216.59 855.237 1217.26 856.397C1217.93 857.549 1218.38 858.866 1218.61 860.351ZM1236.4 870.404V858.273H1240.45V879H1236.49V875.411H1236.27C1235.79 876.517 1235.03 877.439 1233.98 878.177C1232.93 878.906 1231.63 879.27 1230.08 879.27C1228.74 879.27 1227.57 878.978 1226.54 878.393C1225.52 877.799 1224.72 876.922 1224.14 875.761C1223.56 874.601 1223.27 873.166 1223.27 871.457V858.273H1227.31V870.971C1227.31 872.383 1227.7 873.508 1228.48 874.344C1229.27 875.181 1230.28 875.599 1231.53 875.599C1232.29 875.599 1233.04 875.411 1233.79 875.033C1234.54 874.655 1235.17 874.084 1235.66 873.319C1236.17 872.554 1236.41 871.583 1236.4 870.404ZM1261.41 863.333L1257.75 863.981C1257.6 863.513 1257.35 863.068 1257.02 862.645C1256.7 862.222 1256.26 861.876 1255.7 861.606C1255.14 861.336 1254.44 861.201 1253.61 861.201C1252.46 861.201 1251.51 861.457 1250.75 861.97C1249.98 862.474 1249.6 863.126 1249.6 863.927C1249.6 864.62 1249.86 865.177 1250.37 865.6C1250.88 866.023 1251.71 866.369 1252.85 866.639L1256.14 867.395C1258.05 867.836 1259.47 868.515 1260.41 869.433C1261.34 870.35 1261.81 871.542 1261.81 873.009C1261.81 874.25 1261.45 875.357 1260.73 876.328C1260.02 877.291 1259.03 878.046 1257.75 878.595C1256.48 879.144 1255.01 879.418 1253.34 879.418C1251.02 879.418 1249.12 878.924 1247.66 877.934C1246.19 876.935 1245.29 875.518 1244.96 873.683L1248.86 873.089C1249.1 874.106 1249.6 874.875 1250.35 875.397C1251.11 875.91 1252.1 876.166 1253.31 876.166C1254.63 876.166 1255.69 875.892 1256.48 875.343C1257.27 874.785 1257.67 874.106 1257.67 873.305C1257.67 872.658 1257.43 872.113 1256.94 871.673C1256.46 871.232 1255.73 870.899 1254.74 870.674L1251.23 869.905C1249.3 869.464 1247.87 868.762 1246.94 867.8C1246.02 866.837 1245.56 865.618 1245.56 864.143C1245.56 862.919 1245.91 861.849 1246.59 860.931C1247.27 860.013 1248.22 859.298 1249.42 858.786C1250.63 858.264 1252.01 858.003 1253.57 858.003C1255.81 858.003 1257.57 858.489 1258.86 859.46C1260.14 860.423 1260.99 861.714 1261.41 863.333ZM1275.92 858.273V861.511H1264.6V858.273H1275.92ZM1267.64 853.307H1271.67V872.914C1271.67 873.697 1271.79 874.286 1272.02 874.682C1272.26 875.069 1272.56 875.334 1272.93 875.478C1273.31 875.613 1273.71 875.68 1274.16 875.68C1274.48 875.68 1274.76 875.658 1275.01 875.613C1275.25 875.568 1275.44 875.532 1275.57 875.505L1276.3 878.838C1276.07 878.928 1275.73 879.018 1275.3 879.108C1274.87 879.207 1274.33 879.261 1273.68 879.27C1272.62 879.288 1271.63 879.099 1270.71 878.703C1269.8 878.307 1269.05 877.696 1268.49 876.868C1267.92 876.04 1267.64 875.001 1267.64 873.751V853.307ZM1288.89 879.418C1286.95 879.418 1285.26 878.973 1283.81 878.082C1282.36 877.192 1281.23 875.946 1280.43 874.344C1279.63 872.743 1279.23 870.872 1279.23 868.731C1279.23 866.581 1279.63 864.701 1280.43 863.09C1281.23 861.48 1282.36 860.229 1283.81 859.339C1285.26 858.448 1286.95 858.003 1288.89 858.003C1290.84 858.003 1292.53 858.448 1293.98 859.339C1295.43 860.229 1296.55 861.48 1297.36 863.09C1298.16 864.701 1298.56 866.581 1298.56 868.731C1298.56 870.872 1298.16 872.743 1297.36 874.344C1296.55 875.946 1295.43 877.192 1293.98 878.082C1292.53 878.973 1290.84 879.418 1288.89 879.418ZM1288.91 876.031C1290.17 876.031 1291.21 875.698 1292.04 875.033C1292.87 874.367 1293.48 873.481 1293.87 872.374C1294.28 871.268 1294.48 870.049 1294.48 868.717C1294.48 867.395 1294.28 866.18 1293.87 865.074C1293.48 863.958 1292.87 863.063 1292.04 862.388C1291.21 861.714 1290.17 861.376 1288.91 861.376C1287.64 861.376 1286.59 861.714 1285.75 862.388C1284.92 863.063 1284.31 863.958 1283.9 865.074C1283.51 866.18 1283.31 867.395 1283.31 868.717C1283.31 870.049 1283.51 871.268 1283.9 872.374C1284.31 873.481 1284.92 874.367 1285.75 875.033C1286.59 875.698 1287.64 876.031 1288.91 876.031ZM1303.06 879V858.273H1306.93V861.646H1307.19C1307.62 860.504 1308.33 859.613 1309.31 858.974C1310.29 858.327 1311.46 858.003 1312.83 858.003C1314.22 858.003 1315.38 858.327 1316.31 858.974C1317.26 859.622 1317.95 860.513 1318.4 861.646H1318.62C1319.11 860.54 1319.9 859.658 1320.98 859.001C1322.06 858.336 1323.35 858.003 1324.84 858.003C1326.72 858.003 1328.25 858.592 1329.44 859.771C1330.64 860.949 1331.24 862.726 1331.24 865.101V879H1327.2V865.479C1327.2 864.075 1326.82 863.059 1326.05 862.429C1325.29 861.799 1324.38 861.484 1323.31 861.484C1322 861.484 1320.98 861.889 1320.25 862.699C1319.52 863.5 1319.16 864.53 1319.16 865.789V879H1315.14V865.222C1315.14 864.098 1314.79 863.194 1314.08 862.51C1313.38 861.826 1312.47 861.484 1311.35 861.484C1310.58 861.484 1309.87 861.687 1309.23 862.092C1308.59 862.487 1308.07 863.041 1307.68 863.751C1307.29 864.462 1307.09 865.285 1307.09 866.221V879H1303.06ZM1345.58 879.418C1343.54 879.418 1341.78 878.982 1340.3 878.109C1338.83 877.228 1337.7 875.991 1336.9 874.398C1336.11 872.797 1335.71 870.921 1335.71 868.771C1335.71 866.648 1336.11 864.777 1336.9 863.158C1337.7 861.538 1338.82 860.274 1340.25 859.366C1341.69 858.457 1343.37 858.003 1345.29 858.003C1346.46 858.003 1347.6 858.196 1348.69 858.583C1349.79 858.97 1350.78 859.577 1351.65 860.405C1352.52 861.232 1353.21 862.308 1353.71 863.63C1354.22 864.943 1354.47 866.54 1354.47 868.42V869.851H1337.99V866.828H1350.52C1350.52 865.767 1350.3 864.826 1349.87 864.008C1349.44 863.18 1348.83 862.528 1348.05 862.051C1347.27 861.574 1346.36 861.336 1345.32 861.336C1344.19 861.336 1343.2 861.615 1342.35 862.173C1341.52 862.721 1340.87 863.441 1340.41 864.332C1339.96 865.213 1339.73 866.171 1339.73 867.206V869.567C1339.73 870.953 1339.98 872.131 1340.46 873.103C1340.96 874.075 1341.65 874.817 1342.53 875.33C1343.41 875.833 1344.44 876.085 1345.62 876.085C1346.38 876.085 1347.08 875.977 1347.71 875.761C1348.34 875.536 1348.88 875.204 1349.34 874.763C1349.8 874.322 1350.15 873.778 1350.39 873.13L1354.21 873.818C1353.91 874.943 1353.36 875.928 1352.57 876.773C1351.78 877.61 1350.8 878.262 1349.61 878.73C1348.43 879.189 1347.09 879.418 1345.58 879.418ZM1358.95 879V858.273H1362.85V861.565H1363.06C1363.44 860.45 1364.11 859.573 1365.06 858.934C1366.02 858.286 1367.11 857.962 1368.33 857.962C1368.58 857.962 1368.87 857.971 1369.22 857.989C1369.57 858.007 1369.84 858.03 1370.04 858.057V861.916C1369.88 861.871 1369.59 861.822 1369.18 861.768C1368.76 861.705 1368.35 861.673 1367.93 861.673C1366.98 861.673 1366.13 861.876 1365.38 862.281C1364.65 862.676 1364.06 863.23 1363.63 863.94C1363.2 864.642 1362.98 865.443 1362.98 866.342V879H1358.95ZM1389.06 863.333L1385.41 863.981C1385.25 863.513 1385.01 863.068 1384.68 862.645C1384.35 862.222 1383.91 861.876 1383.35 861.606C1382.8 861.336 1382.1 861.201 1381.26 861.201C1380.12 861.201 1379.17 861.457 1378.4 861.97C1377.64 862.474 1377.26 863.126 1377.26 863.927C1377.26 864.62 1377.51 865.177 1378.02 865.6C1378.54 866.023 1379.36 866.369 1380.51 866.639L1383.8 867.395C1385.71 867.836 1387.13 868.515 1388.06 869.433C1389 870.35 1389.47 871.542 1389.47 873.009C1389.47 874.25 1389.11 875.357 1388.39 876.328C1387.68 877.291 1386.68 878.046 1385.41 878.595C1384.14 879.144 1382.67 879.418 1380.99 879.418C1378.67 879.418 1376.78 878.924 1375.31 877.934C1373.85 876.935 1372.95 875.518 1372.61 873.683L1376.51 873.089C1376.76 874.106 1377.26 874.875 1378.01 875.397C1378.77 875.91 1379.75 876.166 1380.97 876.166C1382.29 876.166 1383.35 875.892 1384.14 875.343C1384.93 874.785 1385.32 874.106 1385.32 873.305C1385.32 872.658 1385.08 872.113 1384.6 871.673C1384.12 871.232 1383.39 870.899 1382.4 870.674L1378.89 869.905C1376.95 869.464 1375.52 868.762 1374.6 867.8C1373.68 866.837 1373.22 865.618 1373.22 864.143C1373.22 862.919 1373.56 861.849 1374.25 860.931C1374.93 860.013 1375.87 859.298 1377.08 858.786C1378.29 858.264 1379.67 858.003 1381.22 858.003C1383.46 858.003 1385.23 858.489 1386.51 859.46C1387.8 860.423 1388.65 861.714 1389.06 863.333Z" fill="#17191C"/>
</g>
<g clip-path="url(#clip3_1_349)">
<rect y="616" width="417" height="404" rx="9" fill="#05602C"/>
<path d="M49.6022 819V810.35L69.813 791.636C71.5319 789.973 72.9736 788.476 74.138 787.145C75.3209 785.814 76.2173 784.511 76.8272 783.236C77.4371 781.942 77.7421 780.547 77.7421 779.05C77.7421 777.386 77.3632 775.954 76.6054 774.752C75.8476 773.533 74.8126 772.599 73.5003 771.952C72.1881 771.287 70.7002 770.954 69.0368 770.954C67.2994 770.954 65.7838 771.305 64.49 772.008C63.1962 772.71 62.1982 773.717 61.4958 775.03C60.7935 776.342 60.4423 777.904 60.4423 779.715H49.0477C49.0477 776 49.8887 772.775 51.5706 770.039C53.2525 767.304 55.6091 765.188 58.6402 763.691C61.6714 762.193 65.1646 761.445 69.1199 761.445C73.1861 761.445 76.7256 762.166 79.7382 763.607C82.7694 765.031 85.1259 767.008 86.8079 769.54C88.4898 772.072 89.3308 774.974 89.3308 778.246C89.3308 780.39 88.9057 782.506 88.0555 784.594C87.2237 786.683 85.7359 789.003 83.5919 791.553C81.4479 794.085 78.426 797.126 74.5261 800.674L66.2366 808.798V809.186H90.0793V819H49.6022ZM119.959 819.776C115.689 819.776 111.891 819.083 108.564 817.697C105.256 816.292 102.659 814.379 100.774 811.958C98.8886 809.537 97.946 806.792 97.946 803.724C97.946 801.358 98.482 799.187 99.554 797.209C100.644 795.213 102.123 793.559 103.99 792.246C105.857 790.916 107.945 790.065 110.255 789.696V789.308C107.224 788.698 104.766 787.228 102.881 784.899C100.996 782.552 100.053 779.826 100.053 776.721C100.053 773.782 100.912 771.167 102.631 768.875C104.35 766.565 106.707 764.753 109.701 763.441C112.714 762.11 116.133 761.445 119.959 761.445C123.785 761.445 127.195 762.11 130.189 763.441C133.202 764.772 135.568 766.592 137.286 768.903C139.005 771.194 139.874 773.801 139.892 776.721C139.874 779.844 138.913 782.571 137.009 784.899C135.105 787.228 132.666 788.698 129.69 789.308V789.696C131.963 790.065 134.024 790.916 135.873 792.246C137.739 793.559 139.218 795.213 140.308 797.209C141.417 799.187 141.981 801.358 142 803.724C141.981 806.792 141.029 809.537 139.144 811.958C137.259 814.379 134.653 816.292 131.326 817.697C128.017 819.083 124.228 819.776 119.959 819.776ZM119.959 810.96C121.863 810.96 123.526 810.618 124.949 809.934C126.372 809.232 127.481 808.271 128.276 807.051C129.089 805.813 129.496 804.389 129.496 802.781C129.496 801.136 129.08 799.686 128.248 798.429C127.417 797.153 126.289 796.155 124.866 795.435C123.443 794.695 121.807 794.326 119.959 794.326C118.129 794.326 116.493 794.695 115.052 795.435C113.61 796.155 112.473 797.153 111.642 798.429C110.828 799.686 110.422 801.136 110.422 802.781C110.422 804.389 110.819 805.813 111.614 807.051C112.409 808.271 113.527 809.232 114.969 809.934C116.41 810.618 118.074 810.96 119.959 810.96ZM119.959 785.593C121.548 785.593 122.962 785.269 124.201 784.622C125.439 783.975 126.409 783.079 127.112 781.933C127.814 780.787 128.165 779.466 128.165 777.968C128.165 776.49 127.814 775.196 127.112 774.087C126.409 772.96 125.448 772.082 124.228 771.453C123.009 770.806 121.585 770.483 119.959 770.483C118.351 770.483 116.928 770.806 115.689 771.453C114.451 772.082 113.481 772.96 112.778 774.087C112.095 775.196 111.753 776.49 111.753 777.968C111.753 779.466 112.104 780.787 112.806 781.933C113.508 783.079 114.479 783.975 115.717 784.622C116.955 785.269 118.369 785.593 119.959 785.593ZM167.36 810.35V771.093H177.285V810.35H167.36ZM152.694 795.684V785.759H191.951V795.684H152.694Z" fill="white"/>
<path d="M48.0362 883V855.364H52.206V867.374H65.9837V855.364H70.1669V883H65.9837V870.95H52.206V883H48.0362ZM81.9474 883.459C80.634 883.459 79.4465 883.216 78.3849 882.73C77.3234 882.235 76.4822 881.52 75.8615 880.585C75.2498 879.649 74.9439 878.502 74.9439 877.143C74.9439 875.974 75.1688 875.011 75.6186 874.256C76.0684 873.5 76.6757 872.902 77.4403 872.461C78.205 872.02 79.0597 871.687 80.0043 871.462C80.9489 871.237 81.9115 871.067 82.892 870.95C84.1335 870.806 85.1411 870.689 85.9148 870.599C86.6884 870.5 87.2507 870.342 87.6016 870.126C87.9524 869.911 88.1278 869.56 88.1278 869.074V868.979C88.1278 867.801 87.795 866.888 87.1293 866.24C86.4725 865.592 85.492 865.268 84.1875 865.268C82.8291 865.268 81.7585 865.57 80.9759 866.173C80.2022 866.766 79.6669 867.428 79.37 868.156L75.5781 867.293C76.0279 866.033 76.6847 865.017 77.5483 864.243C78.4209 863.46 79.424 862.893 80.5575 862.543C81.6911 862.183 82.883 862.003 84.1335 862.003C84.9612 862.003 85.8383 862.102 86.7649 862.3C87.7005 862.489 88.5732 862.839 89.3828 863.352C90.2015 863.865 90.8717 864.598 91.3935 865.552C91.9152 866.496 92.1761 867.724 92.1761 869.236V883H88.2358V880.166H88.0739C87.813 880.688 87.4216 881.201 86.8999 881.705C86.3781 882.208 85.7079 882.627 84.8892 882.96C84.0705 883.292 83.09 883.459 81.9474 883.459ZM82.8246 880.22C83.9401 880.22 84.8937 880 85.6854 879.559C86.486 879.118 87.0933 878.542 87.5071 877.832C87.9299 877.112 88.1413 876.343 88.1413 875.524V872.852C87.9974 872.996 87.7185 873.131 87.3047 873.257C86.8999 873.374 86.4366 873.478 85.9148 873.567C85.393 873.648 84.8847 873.725 84.3899 873.797C83.8951 873.86 83.4813 873.914 83.1484 873.959C82.3658 874.058 81.6506 874.224 81.0028 874.458C80.3641 874.692 79.8513 875.029 79.4645 875.47C79.0866 875.902 78.8977 876.478 78.8977 877.197C78.8977 878.196 79.2666 878.952 80.0043 879.464C80.742 879.968 81.6821 880.22 82.8246 880.22ZM97.5502 890.773V862.273H101.491V865.633H101.828C102.062 865.201 102.399 864.702 102.84 864.135C103.281 863.568 103.893 863.073 104.675 862.651C105.458 862.219 106.492 862.003 107.779 862.003C109.452 862.003 110.946 862.426 112.259 863.271C113.573 864.117 114.603 865.336 115.349 866.928C116.105 868.521 116.483 870.437 116.483 872.677C116.483 874.917 116.109 876.838 115.363 878.439C114.616 880.031 113.59 881.259 112.286 882.123C110.982 882.978 109.493 883.405 107.819 883.405C106.56 883.405 105.53 883.193 104.729 882.771C103.938 882.348 103.317 881.853 102.867 881.286C102.417 880.719 102.071 880.216 101.828 879.775H101.585V890.773H97.5502ZM101.504 872.636C101.504 874.094 101.715 875.371 102.138 876.469C102.561 877.566 103.173 878.425 103.974 879.046C104.774 879.658 105.755 879.964 106.915 879.964C108.121 879.964 109.128 879.644 109.938 879.006C110.748 878.358 111.359 877.481 111.773 876.374C112.196 875.268 112.407 874.022 112.407 872.636C112.407 871.269 112.201 870.041 111.787 868.952C111.382 867.864 110.77 867.005 109.952 866.375C109.142 865.745 108.13 865.43 106.915 865.43C105.746 865.43 104.756 865.732 103.947 866.335C103.146 866.937 102.539 867.778 102.125 868.858C101.711 869.937 101.504 871.197 101.504 872.636ZM121.003 890.773V862.273H124.944V865.633H125.281C125.515 865.201 125.852 864.702 126.293 864.135C126.734 863.568 127.346 863.073 128.128 862.651C128.911 862.219 129.946 862.003 131.232 862.003C132.905 862.003 134.399 862.426 135.712 863.271C137.026 864.117 138.056 865.336 138.802 866.928C139.558 868.521 139.936 870.437 139.936 872.677C139.936 874.917 139.563 876.838 138.816 878.439C138.069 880.031 137.044 881.259 135.739 882.123C134.435 882.978 132.946 883.405 131.273 883.405C130.013 883.405 128.983 883.193 128.182 882.771C127.391 882.348 126.77 881.853 126.32 881.286C125.87 880.719 125.524 880.216 125.281 879.775H125.038V890.773H121.003ZM124.957 872.636C124.957 874.094 125.169 875.371 125.591 876.469C126.014 877.566 126.626 878.425 127.427 879.046C128.227 879.658 129.208 879.964 130.368 879.964C131.574 879.964 132.581 879.644 133.391 879.006C134.201 878.358 134.813 877.481 135.226 876.374C135.649 875.268 135.861 874.022 135.861 872.636C135.861 871.269 135.654 870.041 135.24 868.952C134.835 867.864 134.223 867.005 133.405 866.375C132.595 865.745 131.583 865.43 130.368 865.43C129.199 865.43 128.209 865.732 127.4 866.335C126.599 866.937 125.992 867.778 125.578 868.858C125.164 869.937 124.957 871.197 124.957 872.636ZM146.302 890.773C145.699 890.773 145.15 890.723 144.656 890.624C144.161 890.534 143.792 890.435 143.549 890.327L144.521 887.021C145.258 887.219 145.915 887.305 146.491 887.278C147.067 887.251 147.575 887.035 148.016 886.63C148.465 886.225 148.861 885.564 149.203 884.646L149.702 883.27L142.119 862.273H146.437L151.686 878.358H151.902L157.151 862.273H161.483L152.941 885.766C152.545 886.846 152.041 887.759 151.43 888.506C150.818 889.261 150.089 889.828 149.244 890.206C148.398 890.584 147.417 890.773 146.302 890.773ZM198.609 864.351H194.399C194.237 863.451 193.936 862.66 193.495 861.976C193.054 861.292 192.514 860.712 191.876 860.235C191.237 859.758 190.522 859.398 189.73 859.156C188.947 858.913 188.115 858.791 187.233 858.791C185.641 858.791 184.215 859.192 182.956 859.992C181.705 860.793 180.716 861.967 179.987 863.514C179.267 865.062 178.907 866.951 178.907 869.182C178.907 871.431 179.267 873.329 179.987 874.876C180.716 876.424 181.71 877.593 182.969 878.385C184.229 879.177 185.646 879.572 187.22 879.572C188.093 879.572 188.92 879.455 189.703 879.222C190.495 878.979 191.21 878.623 191.849 878.156C192.487 877.688 193.027 877.116 193.468 876.442C193.918 875.758 194.228 874.975 194.399 874.094L198.609 874.107C198.384 875.466 197.948 876.716 197.3 877.859C196.662 878.992 195.838 879.973 194.831 880.8C193.832 881.619 192.69 882.253 191.403 882.703C190.117 883.153 188.713 883.378 187.193 883.378C184.8 883.378 182.668 882.811 180.797 881.678C178.925 880.535 177.45 878.902 176.371 876.779C175.3 874.656 174.765 872.124 174.765 869.182C174.765 866.231 175.305 863.699 176.384 861.585C177.464 859.461 178.939 857.833 180.81 856.7C182.681 855.557 184.809 854.986 187.193 854.986C188.659 854.986 190.027 855.197 191.295 855.62C192.573 856.034 193.72 856.646 194.736 857.455C195.753 858.256 196.594 859.237 197.26 860.397C197.925 861.549 198.375 862.866 198.609 864.351ZM216.405 874.404V862.273H220.453V883H216.486V879.411H216.27C215.793 880.517 215.028 881.439 213.976 882.177C212.932 882.906 211.632 883.27 210.076 883.27C208.745 883.27 207.566 882.978 206.54 882.393C205.524 881.799 204.723 880.922 204.138 879.761C203.563 878.601 203.275 877.166 203.275 875.457V862.273H207.31V874.971C207.31 876.383 207.701 877.508 208.484 878.344C209.266 879.181 210.283 879.599 211.533 879.599C212.289 879.599 213.04 879.411 213.787 879.033C214.543 878.655 215.168 878.084 215.663 877.319C216.166 876.554 216.414 875.583 216.405 874.404ZM241.406 867.333L237.749 867.981C237.597 867.513 237.354 867.068 237.021 866.645C236.697 866.222 236.256 865.876 235.698 865.606C235.141 865.336 234.443 865.201 233.607 865.201C232.464 865.201 231.511 865.457 230.746 865.97C229.981 866.474 229.599 867.126 229.599 867.927C229.599 868.62 229.855 869.177 230.368 869.6C230.881 870.023 231.709 870.369 232.851 870.639L236.144 871.395C238.051 871.836 239.472 872.515 240.408 873.433C241.343 874.35 241.811 875.542 241.811 877.009C241.811 878.25 241.451 879.357 240.732 880.328C240.021 881.291 239.027 882.046 237.749 882.595C236.481 883.144 235.01 883.418 233.337 883.418C231.016 883.418 229.122 882.924 227.656 881.934C226.189 880.935 225.29 879.518 224.957 877.683L228.857 877.089C229.1 878.106 229.599 878.875 230.355 879.397C231.11 879.91 232.095 880.166 233.31 880.166C234.632 880.166 235.689 879.892 236.481 879.343C237.273 878.785 237.669 878.106 237.669 877.305C237.669 876.658 237.426 876.113 236.94 875.673C236.463 875.232 235.73 874.899 234.74 874.674L231.232 873.905C229.298 873.464 227.867 872.762 226.941 871.8C226.023 870.837 225.564 869.618 225.564 868.143C225.564 866.919 225.906 865.849 226.59 864.931C227.273 864.013 228.218 863.298 229.423 862.786C230.629 862.264 232.01 862.003 233.566 862.003C235.806 862.003 237.57 862.489 238.856 863.46C240.142 864.423 240.993 865.714 241.406 867.333ZM255.923 862.273V865.511H244.601V862.273H255.923ZM247.637 857.307H251.672V876.914C251.672 877.697 251.789 878.286 252.023 878.682C252.257 879.069 252.558 879.334 252.927 879.478C253.305 879.613 253.714 879.68 254.155 879.68C254.479 879.68 254.762 879.658 255.005 879.613C255.248 879.568 255.437 879.532 255.572 879.505L256.301 882.838C256.067 882.928 255.734 883.018 255.302 883.108C254.87 883.207 254.331 883.261 253.683 883.27C252.621 883.288 251.632 883.099 250.714 882.703C249.797 882.307 249.054 881.696 248.488 880.868C247.921 880.04 247.637 879.001 247.637 877.751V857.307ZM268.894 883.418C266.951 883.418 265.255 882.973 263.807 882.082C262.359 881.192 261.234 879.946 260.433 878.344C259.633 876.743 259.232 874.872 259.232 872.731C259.232 870.581 259.633 868.701 260.433 867.09C261.234 865.48 262.359 864.229 263.807 863.339C265.255 862.448 266.951 862.003 268.894 862.003C270.838 862.003 272.533 862.448 273.982 863.339C275.43 864.229 276.555 865.48 277.355 867.09C278.156 868.701 278.556 870.581 278.556 872.731C278.556 874.872 278.156 876.743 277.355 878.344C276.555 879.946 275.43 881.192 273.982 882.082C272.533 882.973 270.838 883.418 268.894 883.418ZM268.908 880.031C270.167 880.031 271.211 879.698 272.039 879.033C272.866 878.367 273.478 877.481 273.874 876.374C274.279 875.268 274.481 874.049 274.481 872.717C274.481 871.395 274.279 870.18 273.874 869.074C273.478 867.958 272.866 867.063 272.039 866.388C271.211 865.714 270.167 865.376 268.908 865.376C267.639 865.376 266.587 865.714 265.75 866.388C264.923 867.063 264.306 867.958 263.901 869.074C263.506 870.18 263.308 871.395 263.308 872.717C263.308 874.049 263.506 875.268 263.901 876.374C264.306 877.481 264.923 878.367 265.75 879.033C266.587 879.698 267.639 880.031 268.908 880.031ZM283.06 883V862.273H286.933V865.646H287.189C287.621 864.504 288.327 863.613 289.308 862.974C290.288 862.327 291.462 862.003 292.83 862.003C294.215 862.003 295.376 862.327 296.311 862.974C297.256 863.622 297.953 864.513 298.403 865.646H298.619C299.114 864.54 299.901 863.658 300.98 863.001C302.06 862.336 303.346 862.003 304.84 862.003C306.72 862.003 308.254 862.592 309.441 863.771C310.638 864.949 311.236 866.726 311.236 869.101V883H307.201V869.479C307.201 868.075 306.819 867.059 306.054 866.429C305.29 865.799 304.377 865.484 303.315 865.484C302.002 865.484 300.98 865.889 300.252 866.699C299.523 867.5 299.159 868.53 299.159 869.789V883H295.137V869.222C295.137 868.098 294.787 867.194 294.085 866.51C293.383 865.826 292.47 865.484 291.346 865.484C290.581 865.484 289.875 865.687 289.227 866.092C288.588 866.487 288.071 867.041 287.675 867.751C287.288 868.462 287.095 869.285 287.095 870.221V883H283.06ZM325.577 883.418C323.535 883.418 321.776 882.982 320.301 882.109C318.835 881.228 317.701 879.991 316.9 878.398C316.109 876.797 315.713 874.921 315.713 872.771C315.713 870.648 316.109 868.777 316.9 867.158C317.701 865.538 318.817 864.274 320.247 863.366C321.686 862.457 323.369 862.003 325.294 862.003C326.463 862.003 327.597 862.196 328.694 862.583C329.792 862.97 330.777 863.577 331.65 864.405C332.522 865.232 333.211 866.308 333.714 867.63C334.218 868.943 334.47 870.54 334.47 872.42V873.851H317.993V870.828H330.516C330.516 869.767 330.3 868.826 329.868 868.008C329.437 867.18 328.829 866.528 328.047 866.051C327.273 865.574 326.364 865.336 325.321 865.336C324.187 865.336 323.198 865.615 322.352 866.173C321.515 866.721 320.868 867.441 320.409 868.332C319.959 869.213 319.734 870.171 319.734 871.206V873.567C319.734 874.953 319.977 876.131 320.463 877.103C320.958 878.075 321.646 878.817 322.528 879.33C323.409 879.833 324.439 880.085 325.618 880.085C326.382 880.085 327.08 879.977 327.709 879.761C328.339 879.536 328.883 879.204 329.342 878.763C329.801 878.322 330.152 877.778 330.395 877.13L334.214 877.818C333.908 878.943 333.359 879.928 332.567 880.773C331.785 881.61 330.8 882.262 329.612 882.73C328.434 883.189 327.089 883.418 325.577 883.418ZM338.947 883V862.273H342.847V865.565H343.062C343.44 864.45 344.106 863.573 345.06 862.934C346.022 862.286 347.111 861.962 348.325 861.962C348.577 861.962 348.874 861.971 349.216 861.989C349.567 862.007 349.841 862.03 350.039 862.057V865.916C349.877 865.871 349.589 865.822 349.175 865.768C348.762 865.705 348.348 865.673 347.934 865.673C346.98 865.673 346.13 865.876 345.384 866.281C344.646 866.676 344.061 867.23 343.629 867.94C343.197 868.642 342.982 869.443 342.982 870.342V883H338.947ZM369.063 867.333L365.406 867.981C365.253 867.513 365.01 867.068 364.677 866.645C364.353 866.222 363.912 865.876 363.355 865.606C362.797 865.336 362.1 865.201 361.263 865.201C360.12 865.201 359.167 865.457 358.402 865.97C357.637 866.474 357.255 867.126 357.255 867.927C357.255 868.62 357.512 869.177 358.024 869.6C358.537 870.023 359.365 870.369 360.507 870.639L363.8 871.395C365.707 871.836 367.128 872.515 368.064 873.433C369 874.35 369.468 875.542 369.468 877.009C369.468 878.25 369.108 879.357 368.388 880.328C367.677 881.291 366.683 882.046 365.406 882.595C364.137 883.144 362.666 883.418 360.993 883.418C358.672 883.418 356.778 882.924 355.312 881.934C353.846 880.935 352.946 879.518 352.613 877.683L356.513 877.089C356.756 878.106 357.255 878.875 358.011 879.397C358.767 879.91 359.752 880.166 360.966 880.166C362.289 880.166 363.346 879.892 364.137 879.343C364.929 878.785 365.325 878.106 365.325 877.305C365.325 876.658 365.082 876.113 364.596 875.673C364.119 875.232 363.386 874.899 362.396 874.674L358.888 873.905C356.954 873.464 355.523 872.762 354.597 871.8C353.679 870.837 353.22 869.618 353.22 868.143C353.22 866.919 353.562 865.849 354.246 864.931C354.93 864.013 355.874 863.298 357.08 862.786C358.285 862.264 359.666 862.003 361.222 862.003C363.463 862.003 365.226 862.489 366.512 863.46C367.799 864.423 368.649 865.714 369.063 867.333Z" fill="#DEDEDE"/>
</g>
<g clip-path="url(#clip4_1_349)">
<rect width="417" height="404" rx="9" fill="#FCFCFE"/>
<path d="M49.6022 203V194.35L69.813 175.636C71.5319 173.973 72.9736 172.476 74.138 171.145C75.3209 169.814 76.2173 168.511 76.8272 167.236C77.4371 165.942 77.7421 164.547 77.7421 163.05C77.7421 161.386 77.3632 159.954 76.6054 158.752C75.8476 157.533 74.8126 156.599 73.5003 155.952C72.1881 155.287 70.7002 154.954 69.0368 154.954C67.2994 154.954 65.7838 155.305 64.49 156.008C63.1962 156.71 62.1982 157.717 61.4958 159.03C60.7935 160.342 60.4423 161.904 60.4423 163.715H49.0477C49.0477 160 49.8887 156.775 51.5706 154.039C53.2525 151.304 55.6091 149.188 58.6402 147.691C61.6714 146.193 65.1646 145.445 69.1199 145.445C73.1861 145.445 76.7256 146.166 79.7382 147.607C82.7694 149.031 85.1259 151.008 86.8079 153.54C88.4898 156.072 89.3308 158.974 89.3308 162.246C89.3308 164.39 88.9057 166.506 88.0555 168.594C87.2237 170.683 85.7359 173.003 83.5919 175.553C81.4479 178.085 78.426 181.126 74.5261 184.674L66.2366 192.798V193.186H90.0793V203H49.6022ZM119.959 203.776C115.689 203.776 111.891 203.083 108.564 201.697C105.256 200.292 102.659 198.379 100.774 195.958C98.8886 193.537 97.946 190.792 97.946 187.724C97.946 185.358 98.482 183.187 99.554 181.209C100.644 179.213 102.123 177.559 103.99 176.246C105.857 174.916 107.945 174.065 110.255 173.696V173.308C107.224 172.698 104.766 171.228 102.881 168.899C100.996 166.552 100.053 163.826 100.053 160.721C100.053 157.782 100.912 155.167 102.631 152.875C104.35 150.565 106.707 148.753 109.701 147.441C112.714 146.11 116.133 145.445 119.959 145.445C123.785 145.445 127.195 146.11 130.189 147.441C133.202 148.772 135.568 150.592 137.286 152.903C139.005 155.194 139.874 157.801 139.892 160.721C139.874 163.844 138.913 166.571 137.009 168.899C135.105 171.228 132.666 172.698 129.69 173.308V173.696C131.963 174.065 134.024 174.916 135.873 176.246C137.739 177.559 139.218 179.213 140.308 181.209C141.417 183.187 141.981 185.358 142 187.724C141.981 190.792 141.029 193.537 139.144 195.958C137.259 198.379 134.653 200.292 131.326 201.697C128.017 203.083 124.228 203.776 119.959 203.776ZM119.959 194.96C121.863 194.96 123.526 194.618 124.949 193.934C126.372 193.232 127.481 192.271 128.276 191.051C129.089 189.813 129.496 188.389 129.496 186.781C129.496 185.136 129.08 183.686 128.248 182.429C127.417 181.153 126.289 180.155 124.866 179.435C123.443 178.695 121.807 178.326 119.959 178.326C118.129 178.326 116.493 178.695 115.052 179.435C113.61 180.155 112.473 181.153 111.642 182.429C110.828 183.686 110.422 185.136 110.422 186.781C110.422 188.389 110.819 189.813 111.614 191.051C112.409 192.271 113.527 193.232 114.969 193.934C116.41 194.618 118.074 194.96 119.959 194.96ZM119.959 169.593C121.548 169.593 122.962 169.269 124.201 168.622C125.439 167.975 126.409 167.079 127.112 165.933C127.814 164.787 128.165 163.466 128.165 161.968C128.165 160.49 127.814 159.196 127.112 158.087C126.409 156.96 125.448 156.082 124.228 155.453C123.009 154.806 121.585 154.483 119.959 154.483C118.351 154.483 116.928 154.806 115.689 155.453C114.451 156.082 113.481 156.96 112.778 158.087C112.095 159.196 111.753 160.49 111.753 161.968C111.753 163.466 112.104 164.787 112.806 165.933C113.508 167.079 114.479 167.975 115.717 168.622C116.955 169.269 118.369 169.593 119.959 169.593ZM187.64 199.923V160.665H197.565V199.923H187.64ZM172.974 185.257V175.331H212.231V185.257H172.974Z" fill="#1FBA4A"/>
<path d="M48.0362 267V239.364H52.206V251.374H65.9837V239.364H70.1669V267H65.9837V254.95H52.206V267H48.0362ZM81.9474 267.459C80.634 267.459 79.4465 267.216 78.3849 266.73C77.3234 266.235 76.4822 265.52 75.8615 264.585C75.2498 263.649 74.9439 262.502 74.9439 261.143C74.9439 259.974 75.1688 259.011 75.6186 258.256C76.0684 257.5 76.6757 256.902 77.4403 256.461C78.205 256.02 79.0597 255.687 80.0043 255.462C80.9489 255.237 81.9115 255.067 82.892 254.95C84.1335 254.806 85.1411 254.689 85.9148 254.599C86.6884 254.5 87.2507 254.342 87.6016 254.126C87.9524 253.911 88.1278 253.56 88.1278 253.074V252.979C88.1278 251.801 87.795 250.888 87.1293 250.24C86.4725 249.592 85.492 249.268 84.1875 249.268C82.8291 249.268 81.7585 249.57 80.9759 250.173C80.2022 250.766 79.6669 251.428 79.37 252.156L75.5781 251.293C76.0279 250.033 76.6847 249.017 77.5483 248.243C78.4209 247.46 79.424 246.893 80.5575 246.543C81.6911 246.183 82.883 246.003 84.1335 246.003C84.9612 246.003 85.8383 246.102 86.7649 246.3C87.7005 246.489 88.5732 246.839 89.3828 247.352C90.2015 247.865 90.8717 248.598 91.3935 249.552C91.9152 250.496 92.1761 251.724 92.1761 253.236V267H88.2358V264.166H88.0739C87.813 264.688 87.4216 265.201 86.8999 265.705C86.3781 266.208 85.7079 266.627 84.8892 266.96C84.0705 267.292 83.09 267.459 81.9474 267.459ZM82.8246 264.22C83.9401 264.22 84.8937 264 85.6854 263.559C86.486 263.118 87.0933 262.542 87.5071 261.832C87.9299 261.112 88.1413 260.343 88.1413 259.524V256.852C87.9974 256.996 87.7185 257.131 87.3047 257.257C86.8999 257.374 86.4366 257.478 85.9148 257.567C85.393 257.648 84.8847 257.725 84.3899 257.797C83.8951 257.86 83.4813 257.914 83.1484 257.959C82.3658 258.058 81.6506 258.224 81.0028 258.458C80.3641 258.692 79.8513 259.029 79.4645 259.47C79.0866 259.902 78.8977 260.478 78.8977 261.197C78.8977 262.196 79.2666 262.952 80.0043 263.464C80.742 263.968 81.6821 264.22 82.8246 264.22ZM97.5502 274.773V246.273H101.491V249.633H101.828C102.062 249.201 102.399 248.702 102.84 248.135C103.281 247.568 103.893 247.073 104.675 246.651C105.458 246.219 106.492 246.003 107.779 246.003C109.452 246.003 110.946 246.426 112.259 247.271C113.573 248.117 114.603 249.336 115.349 250.928C116.105 252.521 116.483 254.437 116.483 256.677C116.483 258.917 116.109 260.838 115.363 262.439C114.616 264.031 113.59 265.259 112.286 266.123C110.982 266.978 109.493 267.405 107.819 267.405C106.56 267.405 105.53 267.193 104.729 266.771C103.938 266.348 103.317 265.853 102.867 265.286C102.417 264.719 102.071 264.216 101.828 263.775H101.585V274.773H97.5502ZM101.504 256.636C101.504 258.094 101.715 259.371 102.138 260.469C102.561 261.566 103.173 262.425 103.974 263.046C104.774 263.658 105.755 263.964 106.915 263.964C108.121 263.964 109.128 263.644 109.938 263.006C110.748 262.358 111.359 261.481 111.773 260.374C112.196 259.268 112.407 258.022 112.407 256.636C112.407 255.269 112.201 254.041 111.787 252.952C111.382 251.864 110.77 251.005 109.952 250.375C109.142 249.745 108.13 249.43 106.915 249.43C105.746 249.43 104.756 249.732 103.947 250.335C103.146 250.937 102.539 251.778 102.125 252.858C101.711 253.937 101.504 255.197 101.504 256.636ZM121.003 274.773V246.273H124.944V249.633H125.281C125.515 249.201 125.852 248.702 126.293 248.135C126.734 247.568 127.346 247.073 128.128 246.651C128.911 246.219 129.946 246.003 131.232 246.003C132.905 246.003 134.399 246.426 135.712 247.271C137.026 248.117 138.056 249.336 138.802 250.928C139.558 252.521 139.936 254.437 139.936 256.677C139.936 258.917 139.563 260.838 138.816 262.439C138.069 264.031 137.044 265.259 135.739 266.123C134.435 266.978 132.946 267.405 131.273 267.405C130.013 267.405 128.983 267.193 128.182 266.771C127.391 266.348 126.77 265.853 126.32 265.286C125.87 264.719 125.524 264.216 125.281 263.775H125.038V274.773H121.003ZM124.957 256.636C124.957 258.094 125.169 259.371 125.591 260.469C126.014 261.566 126.626 262.425 127.427 263.046C128.227 263.658 129.208 263.964 130.368 263.964C131.574 263.964 132.581 263.644 133.391 263.006C134.201 262.358 134.813 261.481 135.226 260.374C135.649 259.268 135.861 258.022 135.861 256.636C135.861 255.269 135.654 254.041 135.24 252.952C134.835 251.864 134.223 251.005 133.405 250.375C132.595 249.745 131.583 249.43 130.368 249.43C129.199 249.43 128.209 249.732 127.4 250.335C126.599 250.937 125.992 251.778 125.578 252.858C125.164 253.937 124.957 255.197 124.957 256.636ZM146.302 274.773C145.699 274.773 145.15 274.723 144.656 274.624C144.161 274.534 143.792 274.435 143.549 274.327L144.521 271.021C145.258 271.219 145.915 271.305 146.491 271.278C147.067 271.251 147.575 271.035 148.016 270.63C148.465 270.225 148.861 269.564 149.203 268.646L149.702 267.27L142.119 246.273H146.437L151.686 262.358H151.902L157.151 246.273H161.483L152.941 269.766C152.545 270.846 152.041 271.759 151.43 272.506C150.818 273.261 150.089 273.828 149.244 274.206C148.398 274.584 147.417 274.773 146.302 274.773ZM198.609 248.351H194.399C194.237 247.451 193.936 246.66 193.495 245.976C193.054 245.292 192.514 244.712 191.876 244.235C191.237 243.758 190.522 243.398 189.73 243.156C188.947 242.913 188.115 242.791 187.233 242.791C185.641 242.791 184.215 243.192 182.956 243.992C181.705 244.793 180.716 245.967 179.987 247.514C179.267 249.062 178.907 250.951 178.907 253.182C178.907 255.431 179.267 257.329 179.987 258.876C180.716 260.424 181.71 261.593 182.969 262.385C184.229 263.177 185.646 263.572 187.22 263.572C188.093 263.572 188.92 263.455 189.703 263.222C190.495 262.979 191.21 262.623 191.849 262.156C192.487 261.688 193.027 261.116 193.468 260.442C193.918 259.758 194.228 258.975 194.399 258.094L198.609 258.107C198.384 259.466 197.948 260.716 197.3 261.859C196.662 262.992 195.838 263.973 194.831 264.8C193.832 265.619 192.69 266.253 191.403 266.703C190.117 267.153 188.713 267.378 187.193 267.378C184.8 267.378 182.668 266.811 180.797 265.678C178.925 264.535 177.45 262.902 176.371 260.779C175.3 258.656 174.765 256.124 174.765 253.182C174.765 250.231 175.305 247.699 176.384 245.585C177.464 243.461 178.939 241.833 180.81 240.7C182.681 239.557 184.809 238.986 187.193 238.986C188.659 238.986 190.027 239.197 191.295 239.62C192.573 240.034 193.72 240.646 194.736 241.455C195.753 242.256 196.594 243.237 197.26 244.397C197.925 245.549 198.375 246.866 198.609 248.351ZM216.405 258.404V246.273H220.453V267H216.486V263.411H216.27C215.793 264.517 215.028 265.439 213.976 266.177C212.932 266.906 211.632 267.27 210.076 267.27C208.745 267.27 207.566 266.978 206.54 266.393C205.524 265.799 204.723 264.922 204.138 263.761C203.563 262.601 203.275 261.166 203.275 259.457V246.273H207.31V258.971C207.31 260.383 207.701 261.508 208.484 262.344C209.266 263.181 210.283 263.599 211.533 263.599C212.289 263.599 213.04 263.411 213.787 263.033C214.543 262.655 215.168 262.084 215.663 261.319C216.166 260.554 216.414 259.583 216.405 258.404ZM241.406 251.333L237.749 251.981C237.597 251.513 237.354 251.068 237.021 250.645C236.697 250.222 236.256 249.876 235.698 249.606C235.141 249.336 234.443 249.201 233.607 249.201C232.464 249.201 231.511 249.457 230.746 249.97C229.981 250.474 229.599 251.126 229.599 251.927C229.599 252.62 229.855 253.177 230.368 253.6C230.881 254.023 231.709 254.369 232.851 254.639L236.144 255.395C238.051 255.836 239.472 256.515 240.408 257.433C241.343 258.35 241.811 259.542 241.811 261.009C241.811 262.25 241.451 263.357 240.732 264.328C240.021 265.291 239.027 266.046 237.749 266.595C236.481 267.144 235.01 267.418 233.337 267.418C231.016 267.418 229.122 266.924 227.656 265.934C226.189 264.935 225.29 263.518 224.957 261.683L228.857 261.089C229.1 262.106 229.599 262.875 230.355 263.397C231.11 263.91 232.095 264.166 233.31 264.166C234.632 264.166 235.689 263.892 236.481 263.343C237.273 262.785 237.669 262.106 237.669 261.305C237.669 260.658 237.426 260.113 236.94 259.673C236.463 259.232 235.73 258.899 234.74 258.674L231.232 257.905C229.298 257.464 227.867 256.762 226.941 255.8C226.023 254.837 225.564 253.618 225.564 252.143C225.564 250.919 225.906 249.849 226.59 248.931C227.273 248.013 228.218 247.298 229.423 246.786C230.629 246.264 232.01 246.003 233.566 246.003C235.806 246.003 237.57 246.489 238.856 247.46C240.142 248.423 240.993 249.714 241.406 251.333ZM255.923 246.273V249.511H244.601V246.273H255.923ZM247.637 241.307H251.672V260.914C251.672 261.697 251.789 262.286 252.023 262.682C252.257 263.069 252.558 263.334 252.927 263.478C253.305 263.613 253.714 263.68 254.155 263.68C254.479 263.68 254.762 263.658 255.005 263.613C255.248 263.568 255.437 263.532 255.572 263.505L256.301 266.838C256.067 266.928 255.734 267.018 255.302 267.108C254.87 267.207 254.331 267.261 253.683 267.27C252.621 267.288 251.632 267.099 250.714 266.703C249.797 266.307 249.054 265.696 248.488 264.868C247.921 264.04 247.637 263.001 247.637 261.751V241.307ZM268.894 267.418C266.951 267.418 265.255 266.973 263.807 266.082C262.359 265.192 261.234 263.946 260.433 262.344C259.633 260.743 259.232 258.872 259.232 256.731C259.232 254.581 259.633 252.701 260.433 251.09C261.234 249.48 262.359 248.229 263.807 247.339C265.255 246.448 266.951 246.003 268.894 246.003C270.838 246.003 272.533 246.448 273.982 247.339C275.43 248.229 276.555 249.48 277.355 251.09C278.156 252.701 278.556 254.581 278.556 256.731C278.556 258.872 278.156 260.743 277.355 262.344C276.555 263.946 275.43 265.192 273.982 266.082C272.533 266.973 270.838 267.418 268.894 267.418ZM268.908 264.031C270.167 264.031 271.211 263.698 272.039 263.033C272.866 262.367 273.478 261.481 273.874 260.374C274.279 259.268 274.481 258.049 274.481 256.717C274.481 255.395 274.279 254.18 273.874 253.074C273.478 251.958 272.866 251.063 272.039 250.388C271.211 249.714 270.167 249.376 268.908 249.376C267.639 249.376 266.587 249.714 265.75 250.388C264.923 251.063 264.306 251.958 263.901 253.074C263.506 254.18 263.308 255.395 263.308 256.717C263.308 258.049 263.506 259.268 263.901 260.374C264.306 261.481 264.923 262.367 265.75 263.033C266.587 263.698 267.639 264.031 268.908 264.031ZM283.06 267V246.273H286.933V249.646H287.189C287.621 248.504 288.327 247.613 289.308 246.974C290.288 246.327 291.462 246.003 292.83 246.003C294.215 246.003 295.376 246.327 296.311 246.974C297.256 247.622 297.953 248.513 298.403 249.646H298.619C299.114 248.54 299.901 247.658 300.98 247.001C302.06 246.336 303.346 246.003 304.84 246.003C306.72 246.003 308.254 246.592 309.441 247.771C310.638 248.949 311.236 250.726 311.236 253.101V267H307.201V253.479C307.201 252.075 306.819 251.059 306.054 250.429C305.29 249.799 304.377 249.484 303.315 249.484C302.002 249.484 300.98 249.889 300.252 250.699C299.523 251.5 299.159 252.53 299.159 253.789V267H295.137V253.222C295.137 252.098 294.787 251.194 294.085 250.51C293.383 249.826 292.47 249.484 291.346 249.484C290.581 249.484 289.875 249.687 289.227 250.092C288.588 250.487 288.071 251.041 287.675 251.751C287.288 252.462 287.095 253.285 287.095 254.221V267H283.06ZM325.577 267.418C323.535 267.418 321.776 266.982 320.301 266.109C318.835 265.228 317.701 263.991 316.9 262.398C316.109 260.797 315.713 258.921 315.713 256.771C315.713 254.648 316.109 252.777 316.9 251.158C317.701 249.538 318.817 248.274 320.247 247.366C321.686 246.457 323.369 246.003 325.294 246.003C326.463 246.003 327.597 246.196 328.694 246.583C329.792 246.97 330.777 247.577 331.65 248.405C332.522 249.232 333.211 250.308 333.714 251.63C334.218 252.943 334.47 254.54 334.47 256.42V257.851H317.993V254.828H330.516C330.516 253.767 330.3 252.826 329.868 252.008C329.437 251.18 328.829 250.528 328.047 250.051C327.273 249.574 326.364 249.336 325.321 249.336C324.187 249.336 323.198 249.615 322.352 250.173C321.515 250.721 320.868 251.441 320.409 252.332C319.959 253.213 319.734 254.171 319.734 255.206V257.567C319.734 258.953 319.977 260.131 320.463 261.103C320.958 262.075 321.646 262.817 322.528 263.33C323.409 263.833 324.439 264.085 325.618 264.085C326.382 264.085 327.08 263.977 327.709 263.761C328.339 263.536 328.883 263.204 329.342 262.763C329.801 262.322 330.152 261.778 330.395 261.13L334.214 261.818C333.908 262.943 333.359 263.928 332.567 264.773C331.785 265.61 330.8 266.262 329.612 266.73C328.434 267.189 327.089 267.418 325.577 267.418ZM338.947 267V246.273H342.847V249.565H343.062C343.44 248.45 344.106 247.573 345.06 246.934C346.022 246.286 347.111 245.962 348.325 245.962C348.577 245.962 348.874 245.971 349.216 245.989C349.567 246.007 349.841 246.03 350.039 246.057V249.916C349.877 249.871 349.589 249.822 349.175 249.768C348.762 249.705 348.348 249.673 347.934 249.673C346.98 249.673 346.13 249.876 345.384 250.281C344.646 250.676 344.061 251.23 343.629 251.94C343.197 252.642 342.982 253.443 342.982 254.342V267H338.947ZM369.063 251.333L365.406 251.981C365.253 251.513 365.01 251.068 364.677 250.645C364.353 250.222 363.912 249.876 363.355 249.606C362.797 249.336 362.1 249.201 361.263 249.201C360.12 249.201 359.167 249.457 358.402 249.97C357.637 250.474 357.255 251.126 357.255 251.927C357.255 252.62 357.512 253.177 358.024 253.6C358.537 254.023 359.365 254.369 360.507 254.639L363.8 255.395C365.707 255.836 367.128 256.515 368.064 257.433C369 258.35 369.468 259.542 369.468 261.009C369.468 262.25 369.108 263.357 368.388 264.328C367.677 265.291 366.683 266.046 365.406 266.595C364.137 267.144 362.666 267.418 360.993 267.418C358.672 267.418 356.778 266.924 355.312 265.934C353.846 264.935 352.946 263.518 352.613 261.683L356.513 261.089C356.756 262.106 357.255 262.875 358.011 263.397C358.767 263.91 359.752 264.166 360.966 264.166C362.289 264.166 363.346 263.892 364.137 263.343C364.929 262.785 365.325 262.106 365.325 261.305C365.325 260.658 365.082 260.113 364.596 259.673C364.119 259.232 363.386 258.899 362.396 258.674L358.888 257.905C356.954 257.464 355.523 256.762 354.597 255.8C353.679 254.837 353.22 253.618 353.22 252.143C353.22 250.919 353.562 249.849 354.246 248.931C354.93 248.013 355.874 247.298 357.08 246.786C358.285 246.264 359.666 246.003 361.222 246.003C363.463 246.003 365.226 246.489 366.512 247.46C367.799 248.423 368.649 249.714 369.063 251.333Z" fill="#17191C"/>
</g>
<defs>
<linearGradient id="paint0_linear_1_349" x1="717.91" y1="268" x2="717.91" y2="782.021" gradientUnits="userSpaceOnUse">
<stop stop-color="#1FBA4A"/>
<stop offset="1" stop-color="#70E439"/>
</linearGradient>
<clipPath id="clip0_1_349">
<rect width="450" height="514" fill="white" transform="translate(494 268)"/>
</clipPath>
<clipPath id="clip1_1_349">
<rect x="1020" width="417" height="404" rx="9" fill="white"/>
</clipPath>
<clipPath id="clip2_1_349">
<rect x="1020" y="612" width="417" height="404" rx="9" fill="white"/>
</clipPath>
<clipPath id="clip3_1_349">
<rect y="616" width="417" height="404" rx="9" fill="white"/>
</clipPath>
<clipPath id="clip4_1_349">
<rect width="417" height="404" rx="9" fill="white"/>
</clipPath>
</defs>
</svg>
