<svg width="51" height="52" viewBox="0 0 51 52" fill="none" xmlns="http://www.w3.org/2000/svg">
<path d="M38.6242 11.1507L31.0741 0.565308L3.31275 22.7431L1.77375 22.7264V22.7502H0.5625V51.2502H50.4375V22.7502H48.1528L43.607 9.45256L38.6242 11.1507ZM43.1344 22.7502H19.3179L37.0567 16.7034L40.6715 15.5468L43.1344 22.7502ZM33.9313 12.7514L15.62 18.9929L30.1217 7.40768L33.9313 12.7514ZM5.3125 42.1516V31.8441C6.3145 31.489 7.22463 30.9148 7.97653 30.1633C8.72842 29.4118 9.30313 28.502 9.65875 27.5002H41.3413C41.6967 28.5023 42.2713 29.4126 43.0232 30.1644C43.7751 30.9163 44.6853 31.491 45.6875 31.8464V42.1539C44.6853 42.5094 43.7751 43.084 43.0232 43.8359C42.2713 44.5878 41.6967 45.498 41.3413 46.5002H9.6635C9.30769 45.4972 8.73242 44.5863 7.97967 43.8339C7.22693 43.0816 6.3157 42.5068 5.3125 42.1516Z" fill="#2BFA64"/>
</svg>
