<svg width="22" height="23" viewBox="0 0 22 23" fill="none" xmlns="http://www.w3.org/2000/svg">
<path d="M13.2038 14.2841C13.2038 14.2841 13.3797 14.1081 13.7317 13.7561C14.0836 13.4042 14.2596 12.7308 14.2596 11.7359C14.2596 10.7411 13.9077 9.89173 13.2038 9.18783C12.4999 8.48393 11.6505 8.13198 10.6557 8.13198C9.66081 8.13198 8.81144 8.48393 8.10754 9.18783C7.40364 9.89173 7.05169 10.7411 7.05169 11.7359C7.05169 12.7308 7.40364 13.5802 8.10754 14.2841C8.81144 14.988 9.66081 15.3399 10.6557 15.3399C11.6505 15.3399 12.4999 14.988 13.2038 14.2841ZM14.5834 7.80818C14.5834 7.80818 14.8532 8.07801 15.3929 8.61767C15.9326 9.15732 16.2024 10.1968 16.2024 11.7359C16.2024 13.2751 15.6627 14.5844 14.5834 15.6637C13.5041 16.743 12.1949 17.2827 10.6557 17.2827C9.11646 17.2827 7.80721 16.743 6.72789 15.6637C5.64858 14.5844 5.10892 13.2751 5.10892 11.7359C5.10892 10.1968 5.64858 8.8875 6.72789 7.80818C7.80721 6.72887 9.11646 6.18921 10.6557 6.18921C12.1949 6.18921 13.5041 6.72887 14.5834 7.80818ZM17.3427 5.04889C17.3427 5.04889 17.4061 5.11225 17.5328 5.23895C17.6595 5.36565 17.7228 5.60732 17.7228 5.96396C17.7228 6.32061 17.5961 6.62563 17.3427 6.87903C17.0893 7.13244 16.7843 7.25914 16.4276 7.25914C16.071 7.25914 15.766 7.13244 15.5126 6.87903C15.2592 6.62563 15.1325 6.32061 15.1325 5.96396C15.1325 5.60732 15.2592 5.3023 15.5126 5.04889C15.766 4.79549 16.071 4.66879 16.4276 4.66879C16.7843 4.66879 17.0893 4.79549 17.3427 5.04889ZM11.7326 2.85977C11.7326 2.85977 11.5696 2.86094 11.2434 2.86329C10.9173 2.86563 10.7214 2.8668 10.6557 2.8668C10.59 2.8668 10.231 2.86446 9.57869 2.85977C8.92641 2.85507 8.43133 2.85507 8.09346 2.85977C7.75559 2.86446 7.30274 2.87854 6.73493 2.902C6.16712 2.92546 5.68377 2.97239 5.2849 3.04278C4.88602 3.11317 4.5505 3.19998 4.27832 3.30322C3.80905 3.49093 3.3961 3.7631 3.03946 4.11975C2.68281 4.47639 2.41064 4.88934 2.22293 5.35861C2.11969 5.63078 2.03288 5.96631 1.96249 6.36519C1.8921 6.76406 1.84517 7.24741 1.82171 7.81522C1.79825 8.38303 1.78417 8.83588 1.77948 9.17375C1.77478 9.51162 1.77478 10.0067 1.77948 10.659C1.78417 11.3113 1.78651 11.6702 1.78651 11.7359C1.78651 11.8016 1.78417 12.1606 1.77948 12.8129C1.77478 13.4652 1.77478 13.9603 1.77948 14.2981C1.78417 14.636 1.79825 15.0889 1.82171 15.6567C1.84517 16.2245 1.8921 16.7078 1.96249 17.1067C2.03288 17.5056 2.11969 17.8411 2.22293 18.1133C2.41064 18.5825 2.68281 18.9955 3.03946 19.3521C3.3961 19.7088 3.80905 19.981 4.27832 20.1687C4.5505 20.2719 4.88602 20.3587 5.2849 20.4291C5.68377 20.4995 6.16712 20.5464 6.73493 20.5699C7.30274 20.5934 7.75559 20.6074 8.09346 20.6121C8.43133 20.6168 8.92641 20.6168 9.57869 20.6121C10.231 20.6074 10.59 20.6051 10.6557 20.6051C10.7214 20.6051 11.0803 20.6074 11.7326 20.6121C12.3849 20.6168 12.88 20.6168 13.2179 20.6121C13.5557 20.6074 14.0086 20.5934 14.5764 20.5699C15.1442 20.5464 15.6275 20.4995 16.0264 20.4291C16.4253 20.3587 16.7608 20.2719 17.033 20.1687C17.5023 19.981 17.9152 19.7088 18.2719 19.3521C18.6285 18.9955 18.9007 18.5825 19.0884 18.1133C19.1916 17.8411 19.2784 17.5056 19.3488 17.1067C19.4192 16.7078 19.4661 16.2245 19.4896 15.6567C19.5131 15.0889 19.5271 14.636 19.5318 14.2981C19.5365 13.9603 19.5365 13.4652 19.5318 12.8129C19.5271 12.1606 19.5248 11.8016 19.5248 11.7359C19.5248 11.6702 19.5271 11.3113 19.5318 10.659C19.5365 10.0067 19.5365 9.51162 19.5318 9.17375C19.5271 8.83588 19.5131 8.38303 19.4896 7.81522C19.4661 7.24741 19.4192 6.76406 19.3488 6.36519C19.2784 5.96631 19.1916 5.63078 19.0884 5.35861C18.9007 4.88934 18.6285 4.47639 18.2719 4.11975C17.9152 3.7631 17.5023 3.49093 17.033 3.30322C16.7608 3.19998 16.4253 3.11317 16.0264 3.04278C15.6275 2.97239 15.1442 2.92546 14.5764 2.902C14.0086 2.87854 13.5557 2.86446 13.2179 2.85977C12.88 2.85507 12.3849 2.85507 11.7326 2.85977ZM21.3972 7.27322C21.4441 8.09913 21.4676 9.5867 21.4676 11.7359C21.4676 13.8852 21.4441 15.3728 21.3972 16.1987C21.3033 18.1508 20.7214 19.6619 19.6515 20.7318C18.5816 21.8017 17.0705 22.3836 15.1184 22.4775C14.2925 22.5244 12.8049 22.5479 10.6557 22.5479C8.50641 22.5479 7.01884 22.5244 6.19293 22.4775C4.24078 22.3836 2.72974 21.8017 1.65981 20.7318C0.589884 19.6619 0.00799336 18.1508 -0.08586 16.1987C-0.132787 15.3728 -0.15625 13.8852 -0.15625 11.7359C-0.15625 9.5867 -0.132787 8.09913 -0.08586 7.27322C0.00799336 5.32107 0.589884 3.81003 1.65981 2.7401C2.72974 1.67017 4.24078 1.08828 6.19293 0.994431C7.01884 0.947504 8.50641 0.92404 10.6557 0.92404C12.8049 0.92404 14.2925 0.947504 15.1184 0.994431C17.0705 1.08828 18.5816 1.67017 19.6515 2.7401C20.7214 3.81003 21.3033 5.32107 21.3972 7.27322Z" fill="white"/>
</svg>
